<?xml version="1.0" standalone="no"?>
<!DOCTYPE svg PUBLIC "-//W3C//DTD SVG 20010904//EN"
 "http://www.w3.org/TR/2001/REC-SVG-20010904/DTD/svg10.dtd">
<svg version="1.0" xmlns="http://www.w3.org/2000/svg"
 width="1000.000000pt" height="1000.000000pt" viewBox="0 0 1000.000000 1000.000000"
 preserveAspectRatio="xMidYMid meet">
<metadata>
Created by potrace 1.11, written by Peter Selinger 2001-2013
</metadata>
<g transform="translate(0.000000,1000.000000) scale(0.100000,-0.100000)"
fill="#000000" stroke="none">
<path d="M1147 9413 c-4 -3 -1 -13 6 -21 10 -13 9 -15 -8 -8 -14 5 -17 4 -9
-4 12 -12 6 -70 -8 -70 -5 0 -7 -4 -4 -8 3 -5 -1 -9 -9 -9 -8 0 -12 4 -9 8 2
4 0 10 -5 13 -5 3 -12 -1 -15 -10 -3 -8 -10 -13 -15 -9 -12 7 -42 -35 -35 -47
3 -4 10 -5 16 -2 7 4 8 2 4 -5 -6 -9 -11 -9 -22 0 -8 6 -14 8 -14 3 -1 -5 -9
1 -19 13 -10 12 -21 20 -25 18 -3 -3 -4 -2 -1 2 3 3 -1 13 -7 22 -8 10 -3 8
12 -4 14 -11 22 -16 18 -11 -4 5 -2 16 5 25 10 14 10 14 -4 3 -13 -10 -18 -10
-28 1 -6 8 -8 17 -4 21 4 4 -1 4 -12 0 -15 -6 -17 -4 -11 12 5 14 4 16 -4 8
-6 -6 -12 -18 -14 -27 -1 -8 -7 -21 -12 -28 -19 -24 -23 -48 -11 -52 9 -3 9
-7 0 -16 -7 -6 -11 -8 -8 -4 3 3 -3 15 -12 26 -10 11 -12 17 -5 13 6 -4 12 -5
12 -2 0 3 -10 10 -21 17 -12 6 -19 7 -15 1 3 -5 -1 -13 -10 -16 -8 -3 -12 -2
-9 4 9 15 -8 11 -30 -7 -18 -14 -19 -15 -1 -9 16 5 17 4 6 -9 -7 -8 -16 -13
-20 -10 -4 2 -5 -7 -2 -20 2 -14 8 -25 12 -25 5 0 6 10 4 23 -5 22 -5 22 6 -1
6 -15 14 -21 22 -15 16 9 42 14 34 6 -3 -4 -1 -11 4 -18 7 -8 5 -12 -5 -12 -7
0 -13 4 -12 8 1 4 -2 7 -8 7 -5 0 -9 -5 -7 -11 2 -7 -1 -7 -10 0 -8 6 -21 7
-33 2 -16 -6 -17 -8 -3 -8 9 -1 19 -5 22 -9 3 -4 -8 -7 -25 -6 -16 1 -27 -2
-24 -6 3 -5 0 -12 -6 -16 -8 -4 -9 -3 -5 4 4 7 2 12 -4 12 -6 0 -8 5 -4 12 4
7 3 8 -5 4 -6 -4 -9 -12 -6 -17 3 -5 -1 -6 -9 -3 -9 3 -14 10 -11 14 3 5 -7 7
-21 4 -23 -4 -25 -3 -15 10 8 10 9 16 1 21 -6 4 -9 1 -8 -7 2 -7 -3 -12 -10
-10 -10 2 -10 -2 -3 -17 6 -10 8 -21 4 -24 -3 -4 0 -13 6 -21 8 -10 9 -16 1
-21 -6 -3 -8 -11 -4 -16 3 -5 10 -7 15 -3 5 3 6 10 3 16 -4 6 -2 8 4 4 6 -3
15 2 21 11 6 10 11 13 11 7 0 -6 -9 -19 -20 -29 -11 -10 -17 -22 -14 -27 3 -5
12 -1 18 8 10 13 15 14 21 4 5 -9 4 -11 -3 -6 -7 4 -13 2 -13 -3 -5 -40 -3
-74 5 -78 5 -4 6 -1 2 5 -3 6 -3 13 2 16 4 2 8 -6 8 -19 0 -13 -2 -23 -5 -23
-17 1 -19 -5 -11 -32 5 -19 5 -28 -1 -25 -5 4 -9 16 -9 28 0 17 -2 19 -9 7 -6
-8 -7 -19 -3 -25 3 -5 -1 -4 -10 2 -8 7 -19 9 -23 5 -5 -4 -5 -1 -1 6 4 7 12
10 17 7 5 -4 7 4 5 17 -2 13 1 30 8 38 8 11 6 11 -9 -1 -11 -9 -27 -15 -37
-14 -13 2 -15 -2 -8 -25 9 -33 3 -45 -17 -29 -18 15 -17 0 2 -21 13 -14 13
-17 1 -17 -8 0 -14 5 -13 11 1 6 -4 10 -11 8 -10 -2 -10 2 -2 19 7 11 10 23 8
25 -3 2 -12 -12 -21 -31 -10 -21 -13 -37 -6 -40 5 -4 6 -12 2 -18 -4 -8 -1 -7
9 1 13 10 18 10 24 1 4 -8 3 -9 -4 -5 -7 4 -12 1 -12 -9 0 -10 5 -13 13 -9 9
6 9 5 -1 -8 -17 -21 7 -44 28 -25 12 10 12 9 1 -6 -13 -16 -16 -16 -31 -2 -15
14 -18 13 -35 -5 -23 -26 -35 -25 -35 1 0 11 5 17 10 14 6 -4 7 -12 4 -18 -4
-7 1 -4 12 5 15 14 16 20 5 30 -10 11 -11 9 -5 -7 7 -18 6 -18 -9 -6 -9 7 -14
18 -10 24 3 6 1 7 -6 3 -6 -4 -9 -12 -6 -17 4 -5 2 -9 -3 -9 -17 0 -22 13 -11
29 6 9 -2 1 -19 -18 -28 -31 -34 -69 -8 -54 6 3 3 -3 -7 -14 -15 -17 -15 -22
-4 -32 11 -9 17 -7 28 6 13 16 12 17 -3 5 -11 -9 -18 -10 -23 -2 -6 10 -5 12
18 14 6 0 12 6 12 13 0 6 4 15 8 20 5 4 7 1 5 -7 -3 -14 19 -21 37 -11 6 3 15
6 20 6 6 1 9 7 7 14 -1 7 2 9 9 6 7 -5 7 -11 1 -17 -12 -12 -4 -41 8 -33 5 3
12 0 16 -6 4 -8 3 -9 -4 -5 -7 4 -12 2 -12 -3 0 -6 6 -11 13 -11 8 0 7 -4 -3
-10 -13 -9 -13 -10 0 -11 10 0 8 -3 -5 -9 -30 -13 -39 -12 -25 5 10 12 8 13
-10 10 -19 -4 -20 -2 -8 12 8 10 8 14 1 10 -6 -4 -15 -2 -19 4 -4 8 -3 9 4 5
7 -4 12 -1 12 8 0 8 -7 13 -17 11 -10 -1 -17 -8 -15 -15 1 -6 -2 -9 -8 -5 -5
3 -10 2 -10 -4 0 -5 6 -12 13 -15 6 -3 3 -4 -8 -3 -14 1 -20 -4 -18 -16 0 -12
-4 -17 -13 -13 -9 4 -18 -4 -24 -20 -6 -15 -14 -22 -22 -18 -7 4 -8 3 -4 -4 4
-6 14 -8 23 -5 12 5 14 3 8 -7 -5 -8 -4 -11 2 -7 6 4 9 19 7 34 l-4 28 11 -30
c6 -16 11 -36 11 -43 1 -6 4 -10 6 -7 3 3 11 0 18 -6 12 -10 51 -20 91 -23 12
-1 25 -5 28 -8 4 -3 19 -2 35 2 16 4 31 6 34 2 3 -3 6 0 6 6 0 8 8 9 23 3 19
-7 286 -7 422 -1 82 4 83 7 84 114 1 112 -16 461 -24 496 -4 14 -8 32 -9 40
-2 8 -9 14 -16 12 -6 -1 -9 2 -5 8 3 6 11 8 16 5 13 -9 11 9 -3 24 -11 11 -10
13 0 7 11 -7 11 17 -3 84 -2 8 -4 19 -4 23 -1 5 -7 5 -13 1 -8 -5 -7 0 2 11
14 17 13 17 -9 10 -16 -5 -21 -4 -17 4 8 12 3 15 -7 4z m43 -69 c0 -8 -19 -13
-24 -6 -3 5 1 9 9 9 8 0 15 -2 15 -3z m-243 -39 c-9 -7 -14 -14 -12 -17 3 -3
-1 -11 -9 -17 -11 -10 -14 -9 -12 2 1 8 7 21 14 29 6 8 9 18 5 22 -4 4 1 4 11
0 17 -7 17 -8 3 -19z m210 -10 c0 -8 -4 -12 -9 -9 -5 3 -6 10 -3 15 9 13 12
11 12 -6z m-278 -69 c-3 -3 -11 5 -18 17 -13 21 -12 21 5 5 10 -10 16 -20 13
-22z m-182 -81 c0 -8 -4 -12 -9 -9 -4 3 -8 1 -8 -5 0 -5 6 -12 13 -14 9 -4 9
-6 0 -6 -19 -1 -26 18 -13 34 15 19 17 19 17 0z m100 -10 c0 -8 -4 -12 -9 -9
-5 3 -6 10 -3 15 9 13 12 11 12 -6z m-46 -62 c13 -16 12 -17 -3 -4 -17 13 -22
21 -14 21 2 0 10 -8 17 -17z m-24 -38 c0 -8 -4 -12 -9 -9 -5 3 -6 10 -3 15 9
13 12 11 12 -6z m-57 -70 c0 -2 -6 -8 -13 -14 -10 -8 -14 -7 -14 2 0 8 6 14
14 14 7 0 13 -1 13 -2z m8 -117 c-2 -8 7 -12 20 -12 18 1 21 -1 12 -10 -6 -6
-16 -11 -23 -11 -7 -1 -11 -7 -9 -15 3 -11 0 -11 -12 -1 -9 7 -13 18 -9 25 4
6 8 14 9 19 3 15 4 17 9 17 3 0 4 -6 3 -12z m-35 -19 c-8 -8 -13 -7 -18 2 -5
8 -4 10 3 5 7 -4 12 -2 12 5 0 7 3 9 7 6 4 -4 2 -12 -4 -18z m-157 -37 c-17
-16 -18 -16 -5 5 7 12 15 20 18 17 3 -2 -3 -12 -13 -22z m224 5 c0 -2 -12 -14
-27 -28 l-28 -24 24 28 c23 25 31 32 31 24z m-182 -115 c-2 -20 4 -23 19 -11
9 8 14 9 10 3 -4 -7 0 -14 8 -18 8 -3 17 -1 20 4 8 13 43 8 41 -7 -1 -7 -6
-16 -11 -20 -4 -4 -5 -2 -1 5 9 15 -6 16 -22 0 -7 -7 -12 -8 -12 -2 0 5 -5 2
-11 -6 -9 -13 -10 -12 -5 3 3 9 1 17 -4 17 -6 0 -10 -8 -10 -19 0 -28 -24 -45
-39 -27 -16 19 -22 54 -11 61 5 3 7 12 3 20 -4 11 -1 13 11 9 8 -3 15 -9 14
-12z"/>
<path d="M509 8666 c-5 -23 -4 -33 3 -49 11 -22 24 -15 30 18 3 14 3 23 0 20
-3 -2 -11 0 -19 6 -7 6 -14 9 -14 5z m19 -42 c-3 -14 -5 -12 -10 9 -3 19 -2
25 4 19 6 -6 8 -18 6 -28z"/>
<path d="M1120 9355 c-10 -12 -16 -13 -27 -3 -8 6 -13 7 -12 2 4 -20 -2 -35
-11 -29 -6 4 -7 -1 -3 -11 5 -14 8 -13 18 6 10 19 13 20 18 6 9 -22 23 -13 29
19 6 29 5 30 -12 10z"/>
<path d="M1044 9312 c5 -8 0 -12 -12 -12 -21 0 -36 -25 -26 -41 8 -14 26 1 20
18 -3 8 -2 12 3 9 5 -3 14 1 20 8 9 11 9 16 0 22 -8 4 -9 3 -5 -4z"/>
<path d="M660 9045 c0 -9 -5 -13 -11 -9 -7 4 -7 -2 1 -17 12 -22 13 -22 26 -4
16 21 14 37 -4 43 -7 2 -12 -4 -12 -13z m11 -22 c-12 -20 -14 -14 -5 12 4 9 9
14 11 11 3 -2 0 -13 -6 -23z"/>
<path d="M8363 8998 c-99 -85 -313 -340 -313 -373 0 -3 11 -5 24 -5 16 0 32
11 47 33 42 59 164 211 232 287 37 41 67 78 67 83 0 15 -20 6 -57 -25z"/>
<path d="M613 9003 c0 -9 4 -10 14 -2 7 6 13 12 13 14 0 1 -6 2 -13 2 -8 0
-14 -6 -14 -14z"/>
<path d="M686 8964 c-5 -14 -4 -15 9 -4 17 14 19 20 6 20 -5 0 -12 -7 -15 -16z"/>
<path d="M610 8946 c0 -8 4 -17 9 -20 5 -4 7 3 4 14 -6 23 -13 26 -13 6z"/>
<path d="M503 8919 c-1 -10 8 -25 20 -36 14 -12 18 -13 9 -2 -6 9 -8 20 -4 24
4 5 1 5 -5 1 -19 -10 -16 5 3 18 14 10 13 12 -3 12 -11 0 -20 -8 -20 -17z"/>
<path d="M446 8766 c6 -15 4 -17 -6 -11 -9 6 -11 4 -5 -4 5 -9 10 -10 18 -2 8
8 7 14 -2 24 -10 10 -11 8 -5 -7z"/>
<path d="M566 8747 c3 -10 9 -15 12 -12 3 3 0 11 -7 18 -10 9 -11 8 -5 -6z"/>
<path d="M9265 8741 c-27 -9 -50 -22 -50 -28 0 -7 2 -12 5 -11 3 1 15 -4 27
-10 18 -10 24 -9 36 9 11 15 16 17 20 7 4 -10 6 -10 6 0 1 6 8 12 16 12 8 0
15 5 15 10 0 6 1 13 3 17 4 12 -29 10 -78 -6z m-21 -29 c3 -5 -1 -9 -9 -9 -8
0 -12 4 -9 9 3 4 7 8 9 8 2 0 6 -4 9 -8z"/>
<path d="M9026 8683 c-4 -4 -23 -6 -43 -4 -19 1 -33 -1 -30 -6 3 -5 -6 -9 -21
-9 -19 1 -28 -5 -30 -19 -2 -15 -1 -17 6 -6 8 11 10 11 15 0 4 -11 6 -11 6 -1
1 7 5 11 10 7 5 -3 17 2 25 11 12 11 16 12 16 2 0 -10 2 -10 9 1 5 7 13 11 19
7 5 -3 15 1 22 9 13 15 9 21 -4 8z"/>
<path d="M7024 8662 c4 -3 14 -7 22 -8 9 -1 13 0 10 4 -4 3 -14 7 -22 8 -9 1
-13 0 -10 -4z"/>
<path d="M196 8568 c3 -5 10 -6 15 -3 13 9 11 12 -6 12 -8 0 -12 -4 -9 -9z"/>
<path d="M5376 8353 c-1 -1 -382 -5 -847 -8 -1018 -6 -1499 -12 -1759 -20
-194 -6 -279 -8 -1005 -19 -786 -13 -973 -17 -1065 -22 -106 -7 -330 -12 -552
-13 l-148 -1 0 -1341 0 -1341 108 6 c228 13 632 26 967 31 520 8 2062 19 2281
16 l192 -3 6 49 c14 100 91 417 106 435 14 17 21 19 55 10 22 -6 53 -13 69
-17 l29 -6 -7 98 c-4 54 -8 103 -8 108 0 6 3 49 7 96 7 83 7 87 -14 94 -11 3
-21 10 -21 14 0 4 17 35 38 69 119 199 251 293 476 344 107 24 321 28 506 9
63 -6 151 -13 195 -16 83 -5 268 -49 273 -65 2 -5 11 -6 20 -3 9 3 14 2 9 -2
-4 -5 29 -23 73 -41 43 -18 105 -47 136 -65 32 -18 53 -26 49 -18 -14 22 51
-23 116 -81 127 -111 205 -263 233 -452 19 -124 19 -141 6 -133 -8 5 -15 -147
-9 -191 0 -4 -5 -10 -12 -15 -10 -6 -10 -12 4 -27 21 -23 23 -54 2 -46 -8 4
-13 9 -10 14 2 4 -7 6 -20 5 -37 -5 -229 22 -332 46 -60 14 -102 30 -120 45
-25 22 -26 24 -8 25 l20 0 -20 9 -20 9 20 1 c34 2 -32 25 -136 49 -85 19 -310
59 -431 76 -26 3 -50 10 -53 16 -4 5 -11 51 -16 101 -5 51 -15 98 -22 105 -7
7 -64 14 -144 19 l-132 7 -21 -74 c-36 -123 -30 -117 -92 -108 -163 24 -156
24 -167 -2 -5 -13 -12 -35 -15 -50 -5 -21 -11 -25 -38 -23 -26 1 -27 0 -5 -3
15 -2 27 -10 27 -18 0 -7 8 -16 19 -20 10 -3 35 -25 55 -49 43 -52 81 -68 72
-31 -3 13 -8 30 -12 38 -3 8 1 17 9 20 8 3 113 -7 233 -23 211 -28 288 -40
749 -115 116 -19 251 -39 300 -44 50 -5 101 -14 115 -19 14 -5 46 -12 73 -16
31 -5 47 -12 47 -22 0 -18 -46 -37 -73 -28 -18 6 -19 3 -12 -22 4 -16 8 -35 8
-41 0 -14 -40 -14 1822 -18 523 -1 970 -5 995 -9 25 -4 95 -18 155 -31 134
-30 300 -55 357 -55 23 0 49 -7 58 -15 16 -15 26 -10 121 55 57 39 124 85 148
103 40 30 48 32 125 32 113 -1 161 -24 214 -101 22 -33 51 -71 65 -86 24 -26
93 -52 170 -65 l37 -6 0 1395 c0 1228 -2 1397 -15 1408 -8 7 -15 9 -15 6 0 -4
-9 -2 -21 4 -11 7 -54 12 -95 13 -59 2 -74 -1 -74 -12 0 -12 -2 -12 -12 1 -10
11 -50 19 -153 28 -186 16 -203 17 -470 24 -126 3 -367 9 -535 13 -251 7
-2188 9 -2815 4 -93 0 -226 0 -293 2 -68 1 -125 1 -126 0z m-1576 -1888 c0 -8
-9 -19 -20 -25 -17 -9 -20 -8 -20 8 0 10 3 22 7 25 12 12 33 7 33 -8z m-60
-65 c-7 -28 -17 -53 -22 -56 -6 -4 -8 1 -5 12 4 11 12 41 18 69 7 27 14 44 17
37 2 -7 -2 -35 -8 -62z m50 6 c0 -3 -4 -8 -10 -11 -5 -3 -10 -1 -10 4 0 6 5
11 10 11 6 0 10 -2 10 -4z m-33 -98 c-3 -8 -6 -5 -6 6 -1 11 2 17 5 13 3 -3 4
-12 1 -19z m34 -133 c5 4 9 -5 9 -19 0 -16 -6 -26 -15 -26 -10 0 -12 6 -8 18
6 15 5 16 -12 2 -17 -13 -18 -13 -10 0 11 18 12 19 15 68 l3 37 4 -43 c2 -23
8 -40 14 -37z"/>
<path d="M3948 5914 c-3 -5 1 -20 8 -34 8 -14 14 -19 14 -12 0 6 7 12 15 12
17 0 20 -35 4 -46 -6 -3 -15 -1 -19 6 -5 9 -12 6 -23 -11 -13 -18 -17 -19 -22
-7 -3 8 -1 27 5 42 5 15 6 25 1 21 -9 -5 -28 -78 -36 -136 -6 -39 6 -48 84
-64 126 -27 164 1 177 132 6 58 5 62 -19 78 -29 19 -181 34 -189 19z m90 -84
c-11 -19 -13 -32 -7 -36 7 -4 7 -10 0 -17 -6 -6 -11 -22 -11 -35 0 -24 -1 -24
-25 -8 -14 9 -25 12 -25 6 0 -6 -9 -5 -25 2 -26 12 -26 12 -6 31 16 16 23 18
34 8 12 -10 19 -6 36 17 11 16 18 32 15 35 -3 3 -3 15 1 27 5 17 10 19 18 11
9 -9 8 -19 -5 -41z m72 10 c0 -13 -7 -20 -20 -20 -19 0 -27 20 -13 33 13 14
33 6 33 -13z m-30 -77 c0 -22 -25 -42 -40 -33 -12 7 -12 13 -1 34 14 25 41 25
41 -1z m-145 -51 c-7 -8 -35 7 -35 18 0 6 7 6 20 -2 10 -7 17 -14 15 -16z m42
-8 c-3 -3 -12 -4 -19 -1 -8 3 -5 6 6 6 11 1 17 -2 13 -5z"/>
<path d="M4824 5848 c-10 -16 -6 -143 6 -188 10 -36 47 -78 87 -99 36 -18 137
-13 210 11 45 15 114 53 203 112 l135 90 -40 7 c-22 4 -87 13 -145 19 -152 16
-302 35 -417 55 -19 4 -34 1 -39 -7z"/>
<path d="M4593 5597 c-35 -59 -63 -146 -63 -197 0 -41 5 -55 31 -85 18 -20 51
-47 75 -61 l44 -26 27 34 c16 18 48 52 72 75 l45 42 -20 23 c-10 12 -30 31
-43 42 -13 10 -48 53 -79 95 -30 42 -58 80 -62 84 -4 5 -16 -7 -27 -26z"/>
<path d="M4021 5252 c-28 -26 -51 -53 -51 -59 0 -10 30 -28 34 -21 25 43 45
64 81 87 25 16 42 31 38 35 -18 17 -55 2 -102 -42z"/>
<path d="M4105 5261 c-37 -22 -87 -79 -82 -94 1 -5 21 -17 42 -25 22 -9 73
-35 113 -59 83 -48 82 -48 82 -29 0 16 84 96 102 96 7 0 5 5 -5 11 -29 17 -61
3 -106 -46 -22 -24 -41 -41 -41 -37 0 19 43 68 76 88 31 19 35 24 21 30 -26 9
-73 -14 -108 -53 -16 -19 -33 -32 -36 -29 -9 9 57 76 87 88 l25 10 -22 10
c-27 13 -81 -18 -114 -63 -12 -17 -23 -28 -26 -25 -9 9 40 64 73 82 39 21 44
34 14 34 -33 0 -76 -26 -109 -67 -17 -21 -31 -32 -31 -26 0 20 58 80 91 93 22
10 27 15 17 21 -19 13 -30 11 -63 -10z"/>
<path d="M5598 5173 c-21 -5 -23 -22 -6 -58 12 -26 17 -29 42 -19 11 4 16 19
16 45 0 40 -6 44 -52 32z"/>
<path d="M5440 5112 c-144 -59 -191 -85 -168 -90 9 -2 20 -12 23 -22 7 -21 27
-18 91 11 22 11 45 19 51 19 6 0 41 14 77 30 50 23 66 35 62 46 -3 9 -6 24 -6
35 0 10 -3 19 -7 18 -5 0 -60 -21 -123 -47z m0 -63 c0 -6 -4 -7 -10 -4 -5 3
-10 11 -10 16 0 6 5 7 10 4 6 -3 10 -11 10 -16z"/>
<path d="M4329 5107 c-55 -49 -62 -62 -49 -86 12 -23 30 -28 30 -8 1 16 39 66
40 50 0 -6 -8 -25 -17 -41 -14 -25 -15 -32 -4 -46 17 -20 31 -21 31 -1 0 20
66 93 93 101 20 6 20 7 -3 19 -20 11 -28 10 -47 -2 -12 -8 -28 -13 -35 -11 -7
3 2 12 21 22 26 14 31 20 20 27 -24 15 -43 10 -80 -24z"/>
<path d="M6384 5095 c-3 -8 -3 -19 1 -25 8 -12 35 -13 35 -1 0 5 3 16 6 25 4
12 0 16 -15 16 -12 0 -24 -7 -27 -15z"/>
<path d="M5740 5096 c0 -2 8 -10 18 -17 15 -13 16 -12 3 4 -13 16 -21 21 -21
13z"/>
<path d="M911 5082 c-1 -8 -6 -10 -13 -6 -10 5 -10 4 -1 -6 15 -16 28 -8 20
12 -4 11 -6 11 -6 0z"/>
<path d="M925 5064 c-9 -15 -14 -15 -35 -4 -22 12 -23 11 -13 -2 11 -12 9 -14
-7 -13 -11 1 -23 5 -27 10 -5 4 -1 5 7 0 8 -5 12 -4 7 0 -11 13 -38 15 -30 2
4 -7 0 -8 -11 -4 -9 4 -14 3 -11 -2 3 -5 1 -12 -5 -16 -5 -3 -10 -13 -10 -21
0 -9 5 -12 11 -8 8 4 8 0 0 -15 -14 -25 -23 -28 -14 -3 6 16 5 15 -15 -1 -20
-18 -48 -15 -37 3 3 5 -4 7 -15 5 -12 -2 -20 1 -20 10 0 10 -6 12 -17 8 -15
-6 -16 -4 -5 9 9 11 10 18 2 23 -6 4 -9 1 -8 -7 2 -7 -2 -12 -8 -11 -7 1 -10
-6 -7 -17 4 -16 0 -20 -17 -20 -13 0 -24 -8 -27 -19 -3 -13 -10 -18 -21 -14
-10 4 -13 2 -8 -5 5 -9 1 -9 -17 -3 -14 6 -28 7 -31 4 -6 -6 -10 13 -7 30 1 5
-3 6 -9 2 -6 -3 -7 -11 -4 -17 5 -7 2 -8 -5 -4 -7 5 -10 14 -8 20 3 7 -1 13
-8 13 -9 0 -10 -8 -5 -27 9 -31 3 -43 -22 -53 -21 -8 -50 2 -43 13 3 5 -9 5
-26 0 -25 -8 -29 -7 -19 5 8 10 8 15 -1 21 -8 4 -9 3 -5 -4 4 -7 1 -12 -9 -12
-9 0 -14 -4 -10 -9 3 -5 1 -12 -4 -15 -11 -7 -9 13 2 32 5 8 -2 25 -19 45 -15
17 -25 24 -21 14 5 -14 2 -20 -13 -24 -17 -5 -18 -7 -5 -27 10 -15 11 -25 4
-36 -9 -13 -10 -13 -6 1 3 9 1 22 -4 30 -7 12 -11 11 -26 -3 -9 -10 -12 -18
-6 -18 6 0 14 6 16 13 4 9 6 9 6 0 1 -7 -8 -17 -19 -23 -19 -10 -25 -6 -20 15
16 67 17 72 4 72 -7 0 -11 -3 -9 -7 2 -4 -2 -7 -10 -7 -8 0 -15 4 -15 9 0 4
-7 8 -15 8 -8 0 -15 5 -15 10 0 7 7 7 23 0 20 -10 20 -10 5 3 -10 8 -14 18
-10 23 4 4 0 3 -9 -4 -9 -6 -20 -8 -24 -4 -5 4 -5 0 -1 -8 5 -9 2 -8 -7 3 -8
9 -23 17 -33 16 -18 0 -18 -1 1 -9 11 -5 15 -9 9 -9 -6 -1 -17 -12 -24 -26
-12 -23 -14 -23 -28 -7 -12 15 -12 14 0 -8 23 -41 28 -59 16 -66 -7 -5 -8 -3
-4 5 5 8 3 12 -5 10 -33 -4 -50 1 -43 14 6 9 4 9 -8 -1 -13 -10 -18 -10 -24
-1 -5 8 -3 9 6 4 9 -5 11 -4 6 3 -4 7 -11 12 -17 12 -5 0 -9 -954 -9 -2485 l0
-2485 1465 0 1465 0 0 38 c0 20 -7 118 -15 217 -14 172 -20 464 -10 453 5 -5
21 -225 30 -413 6 -144 16 -236 23 -215 3 8 13 26 23 40 14 21 17 41 13 115
-7 148 -20 302 -35 410 -5 44 -12 109 -15 145 -5 69 -20 101 -30 62 -8 -30
-24 -28 -24 3 0 15 7 28 18 32 38 15 53 45 47 98 -18 165 -49 327 -64 334 -9
5 -50 11 -91 14 -92 8 -124 28 -128 82 -2 23 2 41 9 46 10 6 5 62 -25 266 -59
413 -113 657 -169 773 -31 63 -32 68 -32 200 1 74 6 158 13 186 10 44 8 69
-10 170 -28 159 -31 401 -5 524 28 132 86 267 187 434 14 22 18 36 11 32 -10
-6 -12 -3 -7 12 4 12 2 23 -5 28 -8 4 -9 3 -5 -4 5 -8 0 -12 -13 -12 -12 0
-21 -4 -21 -10 0 -6 -10 -5 -25 2 -13 6 -22 14 -20 18 3 4 -5 10 -16 13 -14 4
-18 10 -13 19 5 9 2 8 -11 -2 -21 -17 -56 -20 -67 -5 -5 6 -8 4 -8 -5 0 -13
-1 -13 -10 0 -9 13 -10 13 -10 0 0 -13 -1 -13 -10 0 -8 12 -10 12 -10 1 0 -10
-4 -11 -12 -3 -9 7 -25 6 -52 -3 -22 -8 -44 -11 -48 -9 -5 3 -39 5 -76 5 -137
-3 -173 -2 -184 5 -7 4 -8 3 -4 -4 5 -9 0 -9 -19 -2 -44 17 -75 20 -75 7 0 -7
-4 -6 -10 3 -7 11 -10 11 -10 2 0 -10 -27 -13 -120 -10 -65 1 -122 -1 -125 -4
-4 -3 -19 -3 -33 1 -15 4 -38 5 -52 1 -23 -5 -46 -6 -52 -1 -3 2 -42 6 -93 11
-5 0 -30 -1 -55 -4 -26 -2 -51 1 -59 7 -12 9 -13 9 -7 0 5 -9 0 -13 -14 -13
-15 0 -20 5 -17 14 4 11 1 13 -10 9 -12 -5 -14 -3 -8 7 6 10 4 12 -9 7 -10 -4
-15 -3 -11 3 3 6 1 10 -4 10 -15 0 -14 -13 2 -29 10 -11 10 -13 0 -7 -7 4 -13
3 -13 -3 0 -5 -9 -9 -19 -8 -11 0 -17 5 -14 10 2 4 0 14 -6 21 -8 10 -8 16 2
25 11 8 24 7 56 -4 23 -8 39 -10 36 -5 -3 5 -1 11 5 15 5 3 10 -2 10 -12 0
-15 2 -15 9 -3 6 8 7 18 4 24 -3 5 -1 6 5 3 5 -4 8 -17 5 -30 -4 -21 -3 -21
10 3 9 14 14 27 11 31 -4 8 38 5 52 -3 20 -13 64 -17 70 -6 4 7 9 6 14 -2 5
-9 11 -8 21 2 21 19 40 21 58 4 23 -21 77 -31 85 -17 4 6 12 11 17 11 6 0 8
-4 5 -8 -3 -5 1 -9 9 -9 8 0 12 4 9 9 -3 4 2 8 10 8 8 0 18 5 21 10 12 19 -6
70 -28 81 -20 9 -20 9 -4 -4 9 -8 17 -17 17 -20 0 -12 -26 4 -38 24 -9 14 -10
19 -2 14 9 -5 10 -1 5 16 -4 16 -3 20 3 11 5 -8 12 -13 16 -13 20 3 26 0 20
-11 -4 -7 -3 -8 5 -4 9 6 9 11 1 21 -9 11 -7 14 9 12 24 -1 23 2 25 -59 0 -25
-2 -44 -6 -41 -5 2 -8 -1 -8 -6 0 -9 63 -16 73 -8 2 1 11 -4 20 -12 14 -11 17
-11 17 0 0 9 3 10 8 3 14 -21 39 -22 55 -3 12 13 13 19 4 19 -8 0 -7 3 3 10 8
5 19 5 25 1 5 -5 18 -7 27 -6 9 2 19 -3 22 -11 8 -21 65 2 63 27 -1 10 -8 19
-17 19 -8 0 -22 5 -30 11 -13 9 -13 10 2 6 12 -4 15 0 14 18 -2 15 1 22 9 19
6 -3 12 2 12 11 0 8 -4 15 -9 15 -5 0 -2 7 6 16 9 8 13 20 10 26 -4 5 4 4 17
-3 22 -11 23 -11 9 5 -13 17 -12 17 25 1 22 -9 48 -19 57 -22 10 -3 15 -10 11
-16 -3 -5 -1 -7 4 -4 6 4 13 20 16 37 4 18 13 30 22 30 9 0 13 5 10 10 -3 6 3
10 15 10 11 0 23 -6 26 -14 3 -8 14 -13 25 -11 10 2 21 0 24 -6 4 -5 0 -9 -7
-9 -8 0 -6 -5 5 -11 21 -12 51 6 40 25 -3 6 0 6 8 -1 16 -15 63 -18 54 -3 -3
6 -3 10 2 11 4 0 15 2 24 4 12 2 15 -3 11 -21 -2 -13 -8 -27 -13 -30 -16 -10
-9 -24 11 -24 13 0 20 7 20 20 0 11 7 20 16 20 8 0 12 4 9 10 -3 5 0 7 9 4 24
-9 39 5 24 24 -10 12 -10 14 0 8 6 -4 12 -3 12 2 0 5 9 12 20 15 17 4 20 2 15
-14 -8 -23 7 -25 25 -4 10 12 10 15 -1 16 -8 0 -3 4 9 10 13 5 29 6 35 2 7 -3
9 -3 5 2 -4 4 -3 14 3 22 9 10 7 13 -10 13 -12 0 -20 -4 -17 -9 3 -5 -1 -12
-10 -15 -21 -8 -21 -8 -21 9 0 8 7 15 14 15 8 0 12 4 9 8 -3 4 8 7 25 6 16 -1
27 2 24 6 -3 5 3 8 13 7 13 -1 18 -7 14 -19 -5 -19 5 -23 24 -10 7 5 7 14 -1
29 -8 16 -15 19 -22 12 -8 -8 -19 -2 -38 20 -15 17 -32 28 -38 24 -6 -4 -8 0
-5 9 7 17 -26 19 -51 4 -10 -6 -12 -5 -7 2 4 7 2 12 -3 12 -6 0 -12 -10 -12
-22 -1 -18 -2 -19 -6 -5 -2 9 -8 15 -13 12 -9 -6 -5 28 5 45 3 6 1 10 -5 10
-6 0 -9 4 -6 8 3 5 -4 8 -14 7 -24 -2 -64 -51 -57 -69 3 -7 0 -19 -6 -25 -9
-9 -8 -10 7 -5 16 6 18 4 13 -10 -4 -10 -7 -23 -7 -29 0 -7 -7 1 -15 17 -8 15
-12 33 -8 39 3 6 1 7 -5 3 -7 -4 -12 -2 -12 4 0 6 -4 9 -8 6 -12 -7 -12 26 0
41 6 7 4 14 -4 19 -7 4 -10 4 -6 -1 4 -4 3 -14 -3 -22 -10 -11 -14 -10 -26 7
-8 11 -19 17 -25 14 -7 -4 -8 -2 -4 4 4 6 2 21 -5 33 -9 17 -8 23 2 30 8 5 9
9 3 9 -6 0 -18 -8 -27 -18 -13 -15 -14 -21 -4 -32 10 -10 9 -11 -2 -5 -11 6
-13 4 -8 -9 4 -10 3 -15 -3 -11 -6 3 -10 14 -11 23 0 14 -2 13 -9 -3 -6 -13
-9 -15 -9 -5 -1 13 -3 13 -10 0 -6 -8 -7 -19 -4 -25 4 -5 2 -6 -3 -2 -5 5 -9
14 -9 20 -1 7 -7 11 -13 9 -10 -2 -10 3 -1 20 6 13 8 20 4 16 -5 -4 -15 -2
-24 5 -14 10 -14 10 -4 -4 10 -13 10 -16 -2 -16 -7 0 -13 5 -12 11 1 6 -4 10
-11 8 -8 -1 -11 2 -7 8 3 6 11 8 16 5 5 -4 6 17 3 51 -5 45 -4 55 6 49 9 -6
11 -4 6 4 -5 7 -11 10 -14 7 -3 -3 -11 -1 -18 5 -8 7 -14 6 -20 -2 -5 -8 -3
-9 6 -4 9 6 11 4 5 -5 -6 -10 -16 -5 -40 23 -36 42 -54 49 -30 13 13 -19 14
-26 3 -32 -7 -4 -10 -4 -6 1 4 4 1 17 -7 28 -10 14 -11 26 -4 44 5 13 6 35 3
48 -5 21 -9 22 -29 13 -14 -6 -21 -16 -18 -27 2 -9 -5 -25 -16 -35 -18 -17
-21 -17 -21 -3 0 11 -5 14 -15 11 -11 -5 -13 -2 -9 10 5 12 2 15 -9 10 -12 -4
-14 -1 -10 15 3 11 9 18 14 15 5 -3 9 0 9 6 0 6 3 9 8 7 4 -3 8 20 8 51 1 41
-1 50 -6 32 -7 -21 -8 -22 -10 -5 l-1 20 -8 -20 c-5 -11 -7 -23 -4 -27 8 -15
-5 -8 -18 9 -10 11 -10 14 -1 9 17 -10 15 2 -3 20 -12 12 -15 12 -15 2 0 -10
-2 -10 -8 -1 -5 8 -13 9 -22 3 -9 -5 -19 -5 -27 2 -7 6 -22 8 -33 5 -14 -4
-20 0 -20 11 0 15 -2 15 -10 2 -5 -8 -10 -10 -10 -4 0 14 -157 14 -179 0 -9
-6 -12 -5 -8 1 4 6 -12 10 -41 10 -26 0 -57 3 -69 6 -13 3 -25 2 -27 -2 -3 -4
-31 -7 -63 -5 -32 1 -84 3 -115 4 -35 2 -58 7 -58 14 0 6 -5 4 -10 -4 -6 -10
-10 -11 -10 -2 0 6 -7 12 -15 12 -8 0 -15 -4 -15 -10 0 -5 -5 -10 -11 -10 -5
0 -8 4 -5 8 3 5 -1 9 -9 9 -8 0 -15 -4 -15 -9 0 -5 -12 -7 -27 -5 -16 2 -34
-1 -42 -7 -12 -8 -13 -8 -7 2 6 10 1 11 -21 6 -15 -4 -32 -10 -38 -13 -16 -11
-40 -6 -37 8 1 7 -2 10 -7 7 -5 -4 -11 -2 -13 4 -2 6 -8 3 -13 -6z m42 -51
c12 -31 12 -32 -13 -27 -18 3 -31 -1 -39 -13 -15 -20 -10 -36 8 -27 7 3 3 -2
-7 -10 -11 -9 -21 -23 -22 -32 -4 -25 -20 -38 -29 -23 -5 8 -4 10 3 5 7 -4 12
-2 12 3 0 6 -5 11 -12 11 -9 0 -9 3 0 12 17 17 15 29 -3 22 -12 -5 -13 -1 -4
25 7 19 15 28 22 24 7 -4 6 1 -1 10 -12 14 -11 16 8 12 18 -3 20 -2 10 10 -9
10 -7 16 7 24 28 16 45 9 60 -26z m203 22 c-7 -8 -14 -15 -15 -15 -2 0 -5 7
-9 15 -4 10 1 15 16 15 17 0 18 -2 8 -15z m-177 -20 c-3 -9 -8 -14 -10 -11 -3
3 -2 9 2 15 9 16 15 13 8 -4z m78 -14 c27 -26 27 -26 4 -26 -15 0 -21 5 -17
14 3 9 1 12 -5 8 -6 -4 -14 0 -17 9 -3 8 -11 12 -17 8 -7 -4 -9 -3 -6 3 10 16
31 11 58 -16z m69 25 c0 -2 -7 -9 -15 -16 -13 -11 -14 -10 -9 4 5 14 24 23 24
12z m481 -29 c-6 -8 -8 -17 -4 -21 9 -9 13 -36 5 -34 -4 1 -15 -2 -25 -7 -10
-4 -21 -5 -24 -1 -4 3 2 6 13 6 16 0 17 2 4 11 -13 8 -13 9 2 7 9 -2 17 2 16
7 0 6 -5 9 -11 7 -6 -2 -3 6 7 17 21 23 35 29 17 8z m-344 -12 c0 -8 -4 -12
-9 -9 -5 3 -6 10 -3 15 9 13 12 11 12 -6z m188 -2 c-2 -10 -4 -22 -4 -28 -1
-5 -6 -3 -11 5 -8 12 -10 12 -10 1 0 -8 -3 -11 -7 -8 -3 4 -11 3 -18 -1 -6 -4
-3 0 7 9 9 9 14 20 10 24 -4 5 -2 5 5 1 6 -3 14 -2 18 4 9 15 14 12 10 -7z
m470 -8 c11 1 19 7 17 14 -1 7 2 10 7 7 10 -7 11 -46 1 -46 -3 0 -12 6 -18 12
-10 10 -14 8 -18 -10 -4 -12 -10 -22 -15 -22 -5 0 -7 -11 -3 -24 5 -20 2 -25
-14 -23 -19 1 -19 4 -7 45 12 37 11 41 -1 31 -7 -6 -12 -15 -9 -19 3 -5 1 -11
-5 -15 -6 -4 -7 -11 -4 -17 4 -7 2 -8 -5 -4 -9 6 -9 11 0 22 6 8 8 14 4 14 -4
0 -2 7 5 15 6 8 9 19 5 24 -4 7 1 8 11 4 13 -5 15 -3 10 8 -6 11 -4 10 6 -1 7
-8 22 -15 33 -15z m-1585 -15 c0 -4 -7 -11 -16 -14 -8 -3 -12 -2 -9 4 3 6 0
10 -7 11 -10 0 -10 2 0 6 6 2 9 10 5 16 -4 7 1 6 10 -2 9 -7 17 -17 17 -21z
m1031 17 c-6 -8 -9 -16 -6 -19 3 -3 -2 -11 -12 -19 -15 -12 -16 -12 -10 3 3
10 2 20 -4 23 -5 4 -9 3 -8 -2 4 -22 -2 -44 -10 -39 -20 12 2 58 23 50 8 -3
17 -1 21 5 3 6 9 11 12 11 3 0 0 -6 -6 -13z m-721 -10 c0 -4 5 -5 11 -2 6 4 5
-3 -3 -15 -11 -19 -11 -23 7 -36 11 -9 19 -20 17 -25 -1 -6 2 -8 7 -4 6 3 8
12 5 20 -4 10 0 12 15 8 17 -4 21 -1 21 18 0 22 0 22 15 3 20 -26 19 -44 -2
-44 -12 0 -14 -3 -6 -8 6 -4 -9 -7 -33 -8 -24 0 -41 3 -38 7 3 5 -2 6 -10 3
-9 -3 -16 -1 -16 5 0 6 -6 8 -14 5 -8 -3 -17 -1 -20 4 -10 16 5 44 20 38 15
-6 7 25 -10 36 -6 4 -1 6 12 5 12 0 22 -5 22 -10z m443 -20 c3 -8 -1 -14 -8
-14 -7 0 -11 6 -8 14 3 7 6 13 8 13 2 0 5 -6 8 -13z m704 -22 c0 -8 -4 -12 -9
-9 -5 3 -6 10 -3 15 9 13 12 11 12 -6z m-1376 -32 c13 -14 19 -23 12 -19 -6 3
-15 2 -18 -4 -5 -8 -11 -7 -21 1 -11 9 -14 8 -14 -4 0 -8 -7 -21 -17 -28 -15
-13 -15 -12 -5 7 6 12 8 24 5 28 -3 3 -1 6 6 6 7 0 9 5 6 10 -7 11 2 30 14 30
4 0 18 -12 32 -27z m67 -15 c15 -15 16 -38 1 -38 -6 0 -8 7 -5 16 5 14 4 15
-9 4 -8 -7 -15 -10 -15 -7 0 3 -3 12 -6 21 -7 19 16 22 34 4z m1102 3 c0 11 2
11 10 -1 10 -17 -5 -40 -26 -40 -8 0 -13 9 -12 24 2 19 5 22 15 14 10 -8 13
-7 13 3z m-268 -23 c-9 -9 -9 -15 1 -27 11 -14 10 -14 -6 -2 -13 10 -15 17 -6
27 6 8 14 14 17 14 3 0 1 -5 -6 -12z m25 -13 c0 -8 -4 -12 -9 -9 -5 3 -6 10
-3 15 9 13 12 11 12 -6z m466 -5 c-3 -12 -8 -19 -11 -16 -5 6 5 36 12 36 2 0
2 -9 -1 -20z m116 -18 c0 -14 -2 -13 -9 3 -8 18 -9 19 -9 1 -1 -12 -6 -16 -17
-12 -8 3 -12 2 -9 -4 9 -14 -8 -12 -25 3 -12 10 -12 9 -1 -5 7 -10 11 -18 7
-18 -16 0 -21 3 -18 12 1 5 -2 7 -7 4 -5 -3 -8 -14 -6 -24 2 -9 4 -20 4 -24 1
-4 12 4 26 17 13 14 30 25 37 25 7 -1 3 -6 -9 -13 -20 -11 -20 -14 -8 -37 17
-29 19 -54 5 -45 -5 3 -10 1 -10 -6 0 -7 -7 -4 -15 7 -14 18 -14 18 -9 -2 3
-12 0 -25 -7 -29 -8 -5 -10 -4 -5 3 4 7 1 12 -6 12 -9 0 -9 3 2 10 13 9 7 14
-12 11 -5 0 -7 2 -6 7 0 4 -2 15 -7 25 -4 9 -3 23 3 30 5 6 8 20 6 30 -1 11 0
16 3 13 4 -3 12 -1 20 5 7 6 13 9 13 6 0 -3 12 0 27 8 30 16 43 12 42 -13z
m78 14 c-18 -14 -18 -14 0 -19 14 -5 14 -5 -3 -4 -11 1 -28 -4 -38 -12 -14
-12 -16 -12 -10 4 5 13 4 16 -4 11 -7 -4 -12 -1 -12 10 0 12 3 14 13 6 8 -7
19 -6 37 3 32 18 40 18 17 1z m-443 -15 c4 -5 -1 -8 -9 -7 -21 3 -31 16 -12
16 9 0 18 -4 21 -9z m-166 -66 c-3 -3 -9 2 -12 12 -6 14 -5 15 5 6 7 -7 10
-15 7 -18z m326 16 c3 -5 -1 -14 -8 -20 -10 -9 -16 -9 -21 -1 -4 6 -1 9 7 8 7
-2 12 3 11 10 -3 14 3 16 11 3z m182 0 c-3 -5 2 -17 12 -28 9 -10 13 -13 8 -6
-5 8 -6 16 -2 20 3 3 6 1 6 -6 0 -7 4 -10 9 -7 5 4 8 -1 7 -11 -4 -28 -34 -23
-45 7 -5 16 -7 31 -4 34 9 9 15 7 9 -3z m-1782 -19 c3 -5 -1 -9 -9 -9 -8 0
-12 4 -9 9 3 4 7 8 9 8 2 0 6 -4 9 -8z m1623 -12 c2 -20 -8 -26 -20 -13 -4 3
-2 12 4 20 15 17 14 17 16 -7z m339 -13 c-16 -12 -16 -14 -2 -26 9 -8 16 -10
16 -5 0 5 4 3 9 -5 6 -9 11 -10 15 -2 4 6 2 11 -4 11 -6 0 -8 5 -4 12 4 7 3 8
-4 4 -14 -9 -15 4 -2 24 6 9 10 11 10 3 0 -7 6 -10 14 -7 18 7 30 -12 15 -22
-8 -4 -9 -3 -5 4 4 7 2 12 -4 12 -6 0 -10 -8 -8 -17 1 -10 -5 -29 -15 -43 -9
-13 -17 -20 -17 -15 0 5 -6 3 -12 -3 -10 -10 -16 -8 -31 10 -10 13 -16 16 -12
8 4 -10 2 -9 -8 2 -8 10 -18 14 -23 10 -4 -4 -3 0 4 9 10 14 10 17 -2 15 -8 0
-15 2 -15 7 -1 4 1 6 3 5 2 -2 13 5 24 15 13 12 22 15 27 8 7 -12 26 -15 24
-3 -3 19 2 25 13 14 9 -9 8 -15 -6 -25z m188 -206 c-3 -4 -11 -6 -16 -6 -6 0
-13 -7 -15 -15 -4 -13 -3 -13 6 0 6 8 11 11 11 7 0 -4 8 -3 18 2 14 8 18 5 19
-12 2 -17 0 -19 -7 -7 -5 8 -10 10 -10 4 0 -6 -8 -10 -19 -9 -23 1 -56 32 -39
37 17 6 58 5 52 -1z m356 -35 c-7 -7 -15 -5 -22 3 -11 10 -10 11 5 5 14 -5 16
-2 11 12 -5 16 -4 16 5 4 6 -9 7 -18 1 -24z m-523 9 c5 -4 2 -4 -6 0 -11 6
-13 4 -8 -8 8 -22 5 -21 -16 3 -16 19 -16 20 3 17 11 -2 23 -7 27 -12z m450
-50 c0 -8 -4 -12 -9 -9 -5 3 -6 10 -3 15 9 13 12 11 12 -6z m-550 -95 c8 -12
7 -16 -8 -16 -10 0 -16 2 -14 5 3 2 0 9 -5 16 -7 8 -5 12 4 12 7 0 18 -8 23
-17z m-267 -14 c0 -2 -8 -10 -17 -17 -16 -13 -17 -12 -4 4 13 16 21 21 21 13z
m-65 -16 c-3 -5 -12 -10 -18 -10 -7 0 -6 4 3 10 19 12 23 12 15 0z m95 -10 c0
-5 -7 -7 -15 -4 -8 4 -15 8 -15 10 0 2 7 4 15 4 8 0 15 -4 15 -10z m80 -15
c-8 -10 -8 -15 1 -21 7 -4 9 -3 6 3 -8 13 18 36 42 38 12 1 18 -7 19 -27 2
-29 -4 -34 -27 -19 -8 5 -10 15 -6 22 4 8 -2 4 -12 -9 -17 -20 -21 -21 -31 -9
-14 16 -5 50 10 41 5 -3 5 -11 -2 -19z m-84 -40 c0 -28 -8 -24 -13 5 -2 11 1
20 5 20 4 0 8 -11 8 -25z m-667 -116 c21 13 39 3 39 -23 0 -27 -1 -27 -108
-29 -133 -2 -183 10 -159 39 6 8 15 12 19 9 5 -3 11 -1 15 5 10 16 46 12 68
-7 15 -13 18 -14 12 -3 -8 13 -7 13 8 1 11 -9 17 -10 17 -2 0 6 6 11 14 11 8
0 17 8 21 17 6 16 8 16 23 -4 12 -16 21 -20 31 -14z"/>
<path d="M910 5030 c-9 -6 -10 -10 -3 -10 6 0 15 5 18 10 8 12 4 12 -15 0z"/>
<path d="M620 4908 c0 -4 4 -8 9 -8 6 0 12 4 15 8 3 5 -1 9 -9 9 -8 0 -15 -4
-15 -9z"/>
<path d="M1580 4858 c0 -4 4 -8 9 -8 6 0 12 4 15 8 3 5 -1 9 -9 9 -8 0 -15 -4
-15 -9z"/>
<path d="M1830 4764 c0 -5 7 -19 15 -30 8 -10 15 -15 15 -10 0 5 6 3 14 -3 20
-17 27 0 11 28 l-13 24 -7 -23 -7 -23 -14 24 c-7 13 -13 19 -14 13z m54 -30
c3 -8 2 -12 -4 -9 -6 3 -10 10 -10 16 0 14 7 11 14 -7z"/>
<path d="M885 4121 c-3 -5 -2 -12 3 -15 5 -3 9 1 9 9 0 17 -3 19 -12 6z"/>
<path d="M727 5055 c6 -18 5 -18 -10 -6 -10 8 -20 11 -24 7 -3 -3 -1 -6 6 -6
7 0 9 -5 6 -10 -4 -6 -1 -9 7 -8 7 2 12 -3 10 -10 -1 -8 4 -12 14 -10 10 2 18
11 20 21 1 11 0 16 -3 13 -3 -3 -12 2 -20 12 -12 16 -13 15 -6 -3z"/>
<path d="M4445 5052 c-17 -9 -42 -34 -57 -56 -25 -38 -25 -42 -11 -58 15 -17
17 -17 33 10 21 35 78 92 92 92 6 0 6 6 -2 15 -15 18 -17 18 -55 -3z"/>
<path d="M0 5032 c0 -18 5 -29 15 -29 8 0 12 4 9 9 -3 4 0 8 6 8 8 0 8 6 0 20
-15 29 -30 25 -30 -8z"/>
<path d="M210 5051 c0 -9 21 -29 33 -30 4 -1 15 -1 24 -1 13 0 14 -3 5 -12 -7
-7 -12 -18 -12 -25 0 -10 4 -11 19 -1 11 6 19 20 18 29 -1 10 -5 16 -9 13 -4
-3 -13 4 -20 16 -13 20 -58 29 -58 11z"/>
<path d="M345 5050 c-4 -6 -1 -9 7 -8 7 2 12 -3 10 -10 -1 -8 2 -11 8 -7 8 5
7 11 -1 21 -14 17 -16 17 -24 4z"/>
<path d="M450 5050 c-9 -6 -10 -10 -3 -10 6 0 15 5 18 10 8 12 4 12 -15 0z"/>
<path d="M476 5044 c-3 -9 -4 -19 -1 -22 3 -3 5 0 5 7 0 7 5 9 10 6 6 -4 7
-12 4 -18 -4 -7 -4 -9 1 -5 4 4 14 3 22 -4 9 -7 13 -8 11 -1 -2 6 2 11 7 11 6
1 9 -7 8 -16 -1 -10 0 -11 3 -4 3 6 11 9 17 5 7 -3 3 4 -8 17 l-20 23 26 -16
c22 -14 28 -15 44 -3 18 13 18 14 -2 24 -11 6 -23 9 -26 5 -10 -9 -81 -10 -88
0 -3 5 -9 1 -13 -9z m54 -10 c0 -8 -19 -13 -24 -6 -3 5 1 9 9 9 8 0 15 -2 15
-3z"/>
<path d="M2035 5036 c-11 -13 -26 -21 -32 -19 -8 3 -13 -4 -13 -20 0 -30 37
-48 51 -26 5 8 9 10 9 6 0 -4 10 -2 23 4 12 6 19 8 15 4 -9 -9 23 -36 34 -29
4 3 5 11 2 19 -4 8 -9 13 -13 10 -4 -2 -8 2 -8 9 0 9 7 12 16 8 9 -3 -1 9 -23
26 -21 18 -39 32 -40 32 0 0 -10 -11 -21 -24z"/>
<path d="M4499 5011 c-19 -10 -47 -37 -63 -60 l-28 -43 37 -38 38 -39 27 43
c15 23 42 54 59 67 28 22 30 27 17 38 -13 11 -22 7 -58 -23 -23 -20 -50 -48
-60 -64 -10 -15 -18 -21 -18 -13 0 24 41 81 76 105 28 19 32 25 21 34 -10 9
-22 7 -48 -7z"/>
<path d="M2159 5003 c-6 -81 -6 -86 8 -67 15 21 17 70 3 79 -5 3 -11 -2 -11
-12z"/>
<path d="M2354 4983 c-11 -11 -13 -18 -5 -21 6 -2 8 -8 5 -14 -3 -5 3 -4 15 4
12 7 21 17 21 22 0 4 -7 3 -15 -4 -10 -8 -15 -9 -15 -2 0 6 8 16 18 21 9 6 12
11 5 11 -6 0 -19 -8 -29 -17z"/>
<path d="M5190 4975 c-10 -13 -9 -15 9 -15 11 0 21 4 21 9 0 18 -18 21 -30 6z"/>
<path d="M2267 4966 c4 -5 0 -7 -9 -4 -8 4 -15 1 -15 -7 0 -7 8 -12 18 -10 10
2 18 0 16 -5 -1 -4 3 -9 8 -10 6 -1 18 -9 28 -17 10 -10 17 -12 17 -5 0 7 -6
12 -12 12 -10 0 -10 2 0 8 7 5 14 18 17 31 4 20 0 22 -35 19 -22 -1 -36 -6
-33 -12z"/>
<path d="M2410 4962 c0 -17 21 -25 31 -13 5 6 6 9 3 6 -4 -3 -13 0 -21 6 -9 8
-13 8 -13 1z"/>
<path d="M66 4948 c3 -5 10 -6 15 -3 13 9 11 12 -6 12 -8 0 -12 -4 -9 -9z"/>
<path d="M1993 4943 c1 -15 5 -19 13 -13 6 6 13 7 16 4 3 -3 9 -1 12 4 3 6 -2
9 -11 8 -10 -2 -21 2 -25 8 -4 6 -6 1 -5 -11z"/>
<path d="M2488 4949 c-20 -11 -14 -38 7 -35 22 3 28 13 18 30 -6 10 -13 12
-25 5z"/>
<path d="M4579 4915 c-49 -32 -85 -90 -69 -110 17 -21 27 -19 35 6 4 12 25 42
48 66 47 51 39 72 -14 38z"/>
<path d="M2705 4901 c-3 -5 -2 -12 3 -15 5 -3 9 1 9 9 0 17 -3 19 -12 6z"/>
<path d="M2120 4854 c0 -14 23 -25 36 -16 18 14 12 28 -12 28 -13 0 -24 -5
-24 -12z"/>
<path d="M3408 4859 c-45 -26 6 -75 66 -64 19 4 41 3 48 -1 7 -4 19 -9 28 -10
8 -1 47 -5 85 -9 109 -12 110 -13 72 -62 -30 -39 -49 -54 -46 -35 1 4 1 14 -1
22 -1 11 -4 9 -9 -5 -5 -13 -3 -27 5 -39 12 -18 11 -21 -16 -32 -32 -14 -37
-31 -19 -67 10 -22 10 -22 -10 1 -24 27 -31 28 -31 3 0 -12 9 -21 24 -25 28
-7 137 -68 132 -74 -3 -2 -13 1 -24 7 -30 16 -62 14 -62 -4 0 -8 -4 -15 -8
-15 -5 0 -22 -14 -40 -31 -17 -17 -36 -28 -42 -24 -5 3 -10 0 -10 -7 0 -9 -3
-9 -10 2 -8 13 -10 12 -10 -2 0 -11 -8 -18 -19 -18 -10 0 -21 -6 -24 -14 -5
-11 0 -11 24 1 17 8 35 16 42 17 7 1 22 7 33 14 12 6 24 9 27 6 3 -3 16 1 29
10 26 19 54 21 64 4 4 -7 3 -8 -4 -4 -7 4 -12 5 -12 1 0 -3 10 -10 23 -15 19
-9 19 -10 2 -8 -11 1 -35 -5 -54 -15 -18 -9 -37 -14 -42 -11 -5 3 -9 0 -9 -6
0 -6 -11 -15 -25 -20 -37 -14 -32 -33 8 -25 17 4 33 11 35 16 2 4 9 6 15 3 7
-2 30 5 52 16 37 19 92 29 70 12 -5 -4 -10 -14 -10 -22 0 -8 -10 -15 -25 -15
-34 -2 -61 -15 -54 -26 3 -5 2 -9 -3 -8 -19 5 -43 -15 -43 -35 0 -11 4 -16 8
-11 8 11 17 14 64 17 18 1 40 6 48 12 8 6 5 -1 -7 -15 -21 -23 -21 -27 -8 -45
8 -10 15 -14 15 -7 0 23 33 5 46 -26 8 -18 14 -35 14 -37 0 -15 -81 53 -90 77
-7 16 -17 29 -22 29 -5 0 -4 -9 2 -20 6 -11 8 -20 5 -20 -10 0 17 -23 60 -51
26 -17 53 -26 77 -25 20 1 34 -2 32 -6 -2 -4 0 -9 6 -13 9 -6 14 8 11 28 -1 4
8 3 19 -3 12 -6 31 -9 43 -5 12 3 -14 -12 -58 -34 -137 -67 -155 -73 -183 -66
-31 7 -86 47 -119 84 -12 14 -24 23 -27 21 -7 -7 73 -92 115 -123 37 -27 76
-30 102 -9 8 7 17 9 20 5 4 -3 12 -1 19 4 7 6 23 9 36 8 12 -1 22 2 22 7 0 5
5 6 10 3 6 -3 10 -2 10 4 0 18 54 17 94 -2 21 -10 35 -14 32 -9 -3 6 2 8 14 5
10 -3 22 -13 25 -23 3 -10 15 -20 26 -23 11 -3 18 -11 17 -19 -2 -7 2 -12 9
-11 7 2 10 -3 7 -10 -3 -8 2 -14 11 -14 8 0 15 5 15 10 0 14 15 -2 15 -16 0
-7 8 -11 18 -11 9 1 17 -4 17 -12 0 -10 12 -14 39 -14 22 0 43 -4 46 -10 3 -5
21 -10 40 -10 21 0 35 -6 39 -16 5 -13 9 -14 21 -4 8 7 15 8 15 3 0 -5 7 -10
15 -10 8 0 12 4 10 8 -3 4 2 9 10 12 10 4 12 1 8 -10 -5 -14 -2 -13 25 2 31
19 31 19 12 37 -11 11 -20 23 -20 28 0 6 -3 9 -7 9 -20 -3 -46 2 -40 8 4 3
-29 26 -73 49 -116 62 -143 78 -156 89 -6 6 -27 21 -47 35 -20 14 -37 29 -37
33 0 9 13 3 55 -28 17 -12 50 -32 75 -45 25 -12 47 -25 50 -29 3 -3 32 -19 65
-35 33 -15 68 -33 78 -38 11 -5 21 -7 24 -4 4 3 12 -2 20 -12 8 -9 12 -11 8
-4 -9 18 22 27 48 13 l22 -11 -22 6 c-15 3 -23 1 -23 -7 0 -8 13 -10 42 -6 27
4 37 2 27 -4 -10 -6 -6 -9 17 -9 17 0 64 -8 105 -19 41 -10 102 -22 137 -26
61 -7 62 -8 62 -37 0 -27 -2 -29 -27 -24 -26 5 -142 10 -170 7 -17 -2 -36 -68
-29 -102 5 -27 3 -29 -24 -29 -26 0 -30 -3 -26 -22 20 -96 19 -98 -16 -99 -18
-1 -25 -3 -15 -6 9 -2 17 -8 17 -13 0 -5 -7 -7 -15 -4 -10 4 -15 0 -15 -11 0
-9 -4 -14 -9 -11 -5 3 -14 -1 -21 -9 -11 -13 -10 -14 4 -9 9 3 16 1 16 -5 0
-6 -4 -11 -9 -11 -5 0 -12 -7 -15 -16 -3 -8 -2 -12 4 -9 6 3 13 0 16 -9 3 -8
16 -22 30 -30 21 -15 23 -15 17 1 -5 11 -3 14 6 8 7 -4 11 -17 9 -29 -3 -16 2
-25 19 -33 18 -9 23 -8 23 3 0 8 5 14 11 14 5 0 7 -5 3 -11 -4 -7 0 -9 14 -5
12 4 37 3 57 -3 28 -8 35 -7 35 5 0 8 7 17 16 21 10 4 14 13 10 28 -9 34 22
42 34 10 9 -24 13 -25 107 -26 54 -1 114 -3 133 -5 57 -6 76 3 86 38 l10 33
129 -2 c72 -1 177 -5 234 -8 94 -6 103 -5 97 10 -5 13 -2 16 11 10 10 -3 71
-11 136 -16 112 -8 233 -25 360 -50 63 -13 102 -47 113 -97 18 -87 45 -177 61
-202 35 -55 123 -139 160 -151 50 -16 135 -5 188 25 55 30 53 32 85 -108 26
-116 17 -125 95 96 27 76 51 136 53 134 2 -3 5 -27 7 -54 2 -27 15 -76 28
-108 14 -33 28 -74 32 -91 7 -36 47 -73 54 -51 8 26 75 79 93 75 10 -3 18 -2
18 2 0 4 67 7 148 8 162 1 233 17 322 71 25 15 61 34 80 41 38 16 90 59 90 75
0 12 102 116 113 116 38 0 -83 -155 -143 -184 -15 -6 -18 -19 -17 -55 1 -53
-56 -411 -79 -489 -8 -29 -17 -83 -20 -120 -12 -169 -118 -642 -169 -757 -8
-16 -28 -77 -44 -135 -43 -143 -57 -167 -137 -228 -117 -89 -156 -113 -176
-106 -10 3 -43 -2 -74 -12 -71 -22 -181 -14 -261 20 -137 57 -245 121 -275
162 -26 37 -29 45 -20 77 8 27 5 55 -10 119 -28 118 -27 337 2 438 15 54 14
54 -54 17 -35 -20 -67 -33 -72 -29 -4 4 -5 2 -1 -3 3 -6 -9 -17 -26 -24 -66
-29 -124 -55 -182 -83 -33 -16 -75 -30 -92 -32 -29 -2 -32 0 -27 19 4 15 0 24
-11 28 -13 5 -14 11 -5 27 10 19 7 24 -13 21 -4 -1 -2 9 5 21 18 34 18 47 0
58 -16 9 -16 9 -1 10 18 0 35 30 18 30 -6 0 -7 5 -4 10 4 6 11 8 16 4 5 -3 8
0 7 8 -2 7 3 12 10 10 8 -1 11 2 7 8 -11 18 -15 70 -5 70 6 0 10 5 10 11 0 5
-4 7 -10 4 -5 -3 -10 -2 -10 4 0 5 9 12 20 16 11 3 19 12 17 18 -1 7 4 11 10
10 7 -2 12 1 10 6 -1 5 16 32 37 61 26 34 44 49 54 45 8 -3 -3 14 -26 39 -30
33 -42 55 -47 91 l-7 46 -29 -27 c-33 -31 -59 -39 -59 -18 0 19 -17 18 -30 -3
-11 -17 -11 -17 -6 -1 3 10 0 20 -7 24 -7 4 -9 4 -5 0 4 -5 3 -18 -2 -30 -4
-12 -11 -80 -14 -152 -4 -71 -14 -181 -22 -244 -9 -63 -14 -126 -12 -141 3
-16 1 -26 -4 -23 -4 3 -8 -7 -9 -23 -1 -57 -11 -162 -30 -307 -13 -101 -16
-153 -9 -160 5 -5 10 -38 10 -72 0 -56 -3 -65 -26 -83 -15 -12 -35 -21 -45
-21 -17 0 -18 -6 -13 -52 3 -29 8 -56 11 -60 2 -5 45 -8 94 -8 95 0 141 -14
153 -47 22 -56 58 -384 61 -560 5 -216 11 -200 -75 -221 -28 -7 -59 -8 -83 -3
-28 7 -41 5 -52 -5 -7 -8 -21 -14 -30 -14 -12 0 -15 -5 -11 -16 3 -9 6 -23 6
-32 0 -13 3 -12 14 4 14 18 15 18 21 -9 4 -16 1 -54 -7 -88 l-15 -59 130 0
129 0 -18 28 c-10 15 -30 45 -46 66 -15 21 -28 42 -28 46 0 3 34 25 76 49 64
36 78 40 92 29 13 -11 14 -11 7 2 -8 13 -7 13 8 1 9 -7 47 -60 85 -117 l67
-104 1818 0 1817 0 0 40 c0 38 -2 40 -30 40 -16 0 -30 -4 -30 -9 0 -15 -61
-25 -70 -11 -5 9 -9 9 -11 1 -6 -17 -46 -21 -59 -6 -6 8 -7 16 -2 19 5 3 10
45 11 93 1 63 6 91 16 99 8 6 11 15 7 20 -4 5 2 1 14 -9 20 -16 22 -16 37 1
10 10 17 23 17 28 0 4 -7 -2 -16 -14 -8 -12 -20 -19 -26 -16 -7 4 -5 10 6 16
9 5 16 18 16 28 0 11 5 20 11 20 5 0 7 -5 3 -12 -4 -7 -3 -8 4 -4 7 4 17 17
23 29 7 12 8 19 4 15 -4 -4 -14 0 -22 10 -12 16 -13 16 -6 -2 4 -14 3 -17 -6
-12 -7 5 -10 2 -9 -6 2 -8 -5 -12 -17 -10 -15 2 -16 0 -7 -6 11 -7 10 -11 -4
-16 -9 -3 -19 -4 -22 -1 -3 3 0 5 7 5 9 0 9 5 0 21 -8 17 -8 20 1 14 9 -5 10
-1 5 16 -4 17 -3 20 3 10 9 -12 11 -12 15 0 2 8 2 3 0 -11 -4 -24 -4 -24 10
-6 14 19 52 33 41 15 -3 -5 2 -9 11 -9 9 0 14 4 11 8 -3 5 9 17 26 27 17 10
28 13 24 6 -4 -6 -2 -11 3 -11 8 0 11 542 11 1807 0 993 -3 1803 -7 1800 -3
-4 -12 1 -20 11 -12 16 -13 15 -7 -3 6 -16 4 -18 -6 -8 -7 6 -19 9 -28 6 -9
-4 -13 -2 -9 4 3 5 0 10 -8 10 -8 0 -12 -3 -10 -6 2 -4 -8 -12 -22 -18 -20
-10 -23 -10 -13 2 8 10 8 15 -1 21 -8 4 -9 3 -5 -4 10 -17 -27 -10 -50 8 -11
9 -15 10 -10 3 8 -14 -6 -18 -18 -6 -9 9 -37 13 -32 4 3 -4 1 -13 -5 -21 -7
-12 -9 -12 -9 -1 0 11 -3 11 -15 1 -13 -11 -14 -10 -9 5 5 12 4 16 -3 12 -6
-4 -13 -1 -16 7 -6 15 -23 16 -44 3 -6 -4 -14 -1 -16 5 -4 10 -6 10 -6 1 -1
-9 -8 -10 -26 -3 -18 7 -25 6 -25 -2 0 -7 -7 -3 -16 8 -8 10 -12 13 -8 5 9
-18 -17 -33 -33 -19 -10 8 -13 7 -13 -3 -1 -10 -4 -8 -11 4 -5 9 -8 21 -4 26
3 5 1 12 -4 15 -5 4 -8 -5 -6 -19 1 -14 -2 -25 -7 -25 -5 0 -7 -4 -4 -9 8 -12
-21 -8 -35 6 -5 5 -11 20 -12 32 -1 22 -2 22 -23 -4 -12 -16 -24 -23 -28 -17
-6 11 -31 10 -42 -1 -4 -3 2 -5 13 -3 11 3 20 -1 20 -9 0 -10 -23 -13 -34 -5
-2 2 -6 3 -10 4 -19 3 -34 19 -29 31 3 10 -2 12 -20 9 -18 -3 -23 -1 -18 7 4
8 3 9 -5 5 -6 -4 -8 -12 -5 -18 4 -6 2 -8 -4 -4 -6 3 -13 2 -17 -4 -3 -5 -16
-8 -28 -5 -58 13 -99 12 -114 -4 -20 -20 -97 -23 -81 -3 8 9 7 11 -3 8 -8 -2
-28 -7 -45 -10 -29 -5 -31 -3 -27 17 3 19 2 19 -9 -3 -13 -25 -29 -32 -43 -18
-4 4 -16 3 -26 -3 -11 -5 -19 -6 -19 -2 0 4 -5 1 -11 -7 -9 -12 -10 -11 -6 7
3 15 1 20 -9 16 -7 -2 -10 -12 -6 -21 5 -15 4 -16 -13 -2 -17 13 -18 13 -13 0
4 -11 -1 -15 -18 -15 -15 0 -24 6 -24 15 0 13 -1 13 -10 0 -7 -11 -10 -11 -10
-2 0 7 -4 10 -10 7 -5 -3 -19 -8 -30 -10 -17 -3 -18 -1 -10 15 7 13 5 21 -8
31 -16 13 -16 13 -2 -5 14 -18 13 -19 -2 -13 -12 4 -16 1 -13 -13 2 -11 -1
-23 -7 -26 -6 -4 -8 -3 -5 3 4 6 0 16 -8 23 -13 11 -14 10 -9 -4 6 -14 2 -17
-22 -13 -38 5 -65 17 -59 26 2 4 -2 8 -10 8 -8 0 -11 -5 -8 -11 4 -6 -1 -5
-10 3 -9 7 -17 10 -17 6 0 -4 -11 4 -25 19 -27 29 -20 28 -194 26 -29 0 -49
-6 -58 -18 -8 -9 -11 -11 -7 -3 5 11 3 13 -9 8 -10 -3 -17 -2 -17 2 0 10 -70
11 -85 1 -5 -3 -28 -8 -50 -9 -22 -2 -43 -8 -47 -14 -6 -9 -8 -9 -8 0 0 6 -9
10 -20 8 -11 -2 -18 0 -15 4 2 5 -2 14 -10 21 -12 10 -19 9 -37 -2 -20 -14
-26 -14 -55 0 -29 14 -35 14 -80 -6 -26 -11 -50 -17 -53 -12 -7 12 -60 33 -87
35 -12 1 -20 -2 -18 -6 5 -8 -86 -4 -150 7 -33 5 -177 14 -260 15 -10 0 -24 4
-31 10 -6 5 -28 7 -48 5 -20 -2 -34 -1 -31 4 3 4 -5 11 -18 15 -34 12 -57 13
-51 3 3 -4 9 -6 14 -3 5 3 11 1 15 -4 3 -6 -3 -8 -14 -6 -11 2 -22 -2 -24 -9
-3 -7 -16 -12 -29 -10 -12 1 -27 3 -31 3 -5 1 -6 5 -3 10 7 11 -13 9 -33 -3
-11 -7 -12 -6 -6 5 7 11 6 12 -6 3 -8 -5 -25 -9 -39 -8 -14 1 -29 -1 -35 -4
-19 -12 -37 -10 -32 2 6 16 -39 14 -70 -2 -12 -7 -33 -12 -47 -12 -13 0 -26
-6 -29 -12 -3 -10 -7 -10 -20 1 -9 7 -14 18 -10 24 3 6 1 7 -6 3 -6 -4 -14 0
-17 8 -8 21 -24 20 -39 -1 -11 -14 -15 -15 -28 -4 -9 7 -22 9 -28 5 -8 -4 -9
-3 -5 4 9 15 -26 16 -41 1 -15 -15 -101 -20 -110 -6 -4 6 -1 7 8 2 12 -8 12
-6 0 8 -13 16 -37 14 -26 -2 2 -5 -3 -17 -11 -27 -9 -10 -12 -13 -8 -5 4 8 0
19 -11 27 -14 11 -21 10 -40 -2 -17 -11 -28 -12 -54 -3 -22 8 -35 8 -40 2 -8
-13 -43 -13 -59 0 -7 6 -66 11 -131 13 -65 2 -131 6 -147 9 -27 5 -28 5 -6 -6
33 -18 27 -27 -23 -31 -25 -2 -45 -1 -45 3 0 3 -25 7 -55 8 l-55 2 0 -48 c0
-27 -6 -57 -14 -68 -11 -17 -11 -30 0 -80 7 -33 13 -66 13 -73 1 -7 6 -10 11
-7 6 3 10 -1 10 -9 0 -24 -75 -29 -284 -22 -105 4 -204 7 -221 7 -35 -1 -45 6
-63 37 -12 22 -12 23 5 18 27 -9 86 76 81 116 -4 28 -4 28 20 12 13 -8 25 -14
27 -12 2 2 -9 12 -26 23 -16 11 -29 27 -29 36 0 36 -26 41 -66 13 -38 -26 -41
-26 -164 -21 -218 9 -327 53 -458 185 -87 89 -103 112 -133 200 -23 68 -36 83
-120 137 -107 69 -213 150 -247 189 -18 20 -32 33 -32 28 0 -4 13 -23 30 -42
16 -19 29 -39 30 -44 0 -6 10 -20 22 -33 21 -23 19 -22 -44 7 -36 17 -107 42
-158 56 -120 32 -180 59 -187 83 -3 10 -15 22 -26 25 -36 10 -191 6 -209 -5z
m376 -438 c-2 -3 -12 3 -22 13 -16 17 -16 18 5 5 12 -7 20 -15 17 -18z m89
-178 c-10 -3 -10 -9 -1 -23 7 -11 9 -23 5 -27 -11 -10 -42 11 -42 28 0 8 -7
17 -15 21 -8 4 3 7 25 7 22 -1 35 -3 28 -6z m2607 -93 c0 -5 -2 -10 -4 -10 -3
0 -8 5 -11 10 -3 6 -1 10 4 10 6 0 11 -4 11 -10z m-286 -8 c3 -5 -1 -9 -9 -9
-8 0 -12 4 -9 9 3 4 7 8 9 8 2 0 6 -4 9 -8z m216 -37 c0 -8 -4 -15 -9 -15 -13
0 -22 16 -14 24 11 11 23 6 23 -9z m-653 -17 c-3 -8 -6 -5 -6 6 -1 11 2 17 5
13 3 -3 4 -12 1 -19z m720 16 c-3 -3 -12 -4 -19 -1 -8 3 -5 6 6 6 11 1 17 -2
13 -5z m117 -62 c-6 -13 -9 -11 -13 13 -4 17 -2 33 4 37 12 9 19 -27 9 -50z
m73 44 c-3 -8 -1 -16 5 -18 13 -5 20 -38 8 -38 -5 0 -11 6 -14 13 -3 6 -3 -8
-1 -33 6 -44 5 -44 -9 -20 -9 15 -13 36 -10 53 5 23 2 27 -18 28 l-23 2 24 4
c19 4 21 7 10 14 -11 6 -8 9 10 9 16 0 21 -4 18 -14z m1230 -22 c-3 -3 -12 -4
-19 -1 -8 3 -5 6 6 6 11 1 17 -2 13 -5z m48 -37 c4 5 5 2 1 -5 -7 -11 -11 -10
-25 2 -10 9 -21 13 -26 9 -4 -5 -5 -2 -1 5 7 11 11 10 25 -2 10 -9 21 -13 26
-9z m1864 -3 c5 4 12 2 15 -2 3 -5 -7 -8 -22 -7 -41 3 -44 4 -37 15 5 8 11 7
20 0 8 -7 19 -9 24 -6z m-3011 -68 c2 -19 0 -26 -8 -21 -6 4 -9 14 -5 23 3 8
0 19 -7 24 -10 7 -9 9 2 5 8 -2 16 -16 18 -31z m-2518 -46 c0 -5 -2 -10 -4
-10 -3 0 -8 5 -11 10 -3 6 -1 10 4 10 6 0 11 -4 11 -10z m1948 -27 c2 -9 -7
-13 -30 -13 -45 0 -79 10 -72 22 8 13 97 5 102 -9z m1225 -44 l19 -34 -20 23
c-11 12 -24 22 -29 22 -5 0 -20 11 -33 25 l-24 26 34 -15 c21 -8 43 -28 53
-47z m-1720 44 c-13 -2 -33 -2 -45 0 -13 2 -3 4 22 4 25 0 35 -2 23 -4z m1077
-28 c0 -14 -4 -25 -10 -25 -5 0 -10 11 -10 25 0 14 5 25 10 25 6 0 10 -11 10
-25z m1923 -62 c23 -36 44 -128 27 -118 -4 2 -10 22 -13 44 -3 22 -17 56 -32
75 -15 20 -22 36 -16 36 6 0 21 -17 34 -37z m-3860 -46 c4 -29 3 -46 -3 -42
-12 8 -24 71 -15 85 10 16 11 12 18 -43z m2257 32 c0 -6 -4 -7 -10 -4 -5 3
-10 11 -10 16 0 6 5 7 10 4 6 -3 10 -11 10 -16z m353 1 c3 -11 1 -18 -4 -14
-5 3 -9 12 -9 20 0 20 7 17 13 -6z m-553 -117 c0 -20 -16 -8 -23 17 -4 17 -3
19 9 9 8 -6 14 -18 14 -26z m1646 11 c18 -15 18 -15 -6 -10 -14 3 -38 6 -55 6
-23 0 -27 3 -15 10 22 14 54 12 76 -6z m214 -32 c-6 -2 -10 -16 -10 -30 0 -15
-5 -34 -11 -42 -7 -11 -8 -2 -5 32 5 57 15 76 27 57 5 -8 4 -15 -1 -17z m-319
-10 c-20 -38 -12 -64 34 -109 52 -49 44 -59 -9 -12 -41 36 -56 87 -36 125 8
13 15 22 17 20 3 -2 0 -13 -6 -24z m389 -17 c0 -14 -4 -25 -10 -25 -5 0 -10
11 -10 25 0 14 5 25 10 25 6 0 10 -11 10 -25z m-1689 -57 c30 -58 19 -55 -14
4 -15 27 -23 47 -17 43 5 -3 20 -24 31 -47z m1693 14 c2 -4 0 -14 -5 -22 -8
-13 -10 -13 -19 0 -5 8 -10 18 -10 23 0 10 28 9 34 -1z m36 -29 c0 -13 -3 -13
-15 -3 -8 7 -12 16 -9 21 8 13 24 1 24 -18z m10 -64 c0 -11 -4 -17 -10 -14 -5
3 -10 15 -10 26 0 11 5 17 10 14 6 -3 10 -15 10 -26z m40 -228 c0 -43 -1 -44
-15 -24 -8 12 -12 28 -9 37 3 8 -4 30 -17 47 l-23 32 32 -23 c28 -21 32 -30
32 -69z m-2190 6 c0 -12 0 -11 -24 28 l-17 30 20 -24 c12 -13 21 -28 21 -34z
m2160 19 c0 -3 -4 -8 -10 -11 -5 -3 -10 -1 -10 4 0 6 5 11 10 11 6 0 10 -2 10
-4z m-2261 -23 c5 -10 15 -44 22 -77 7 -32 19 -60 26 -63 17 -7 -9 -38 -49
-59 -39 -20 -49 -18 -42 10 8 33 -30 153 -57 182 l-22 24 56 0 c43 0 58 -4 66
-17z m1351 -155 c0 -14 -16 -9 -33 10 -8 9 -21 31 -27 47 -11 29 -10 28 24
-10 19 -22 35 -43 36 -47z m-1465 -68 c3 -5 -1 -10 -9 -10 -9 0 -16 5 -16 10
0 6 4 10 9 10 6 0 13 -4 16 -10z m-576 -1284 l11 -31 -19 24 c-10 14 -27 38
-36 55 l-18 31 26 -24 c14 -13 31 -38 36 -55z m41 -16 c0 -5 -5 -10 -11 -10
-5 0 -7 5 -4 10 3 6 8 10 11 10 2 0 4 -4 4 -10z"/>
<path d="M2100 4825 c0 -2 6 -8 13 -14 10 -8 14 -7 14 2 0 8 -6 14 -14 14 -7
0 -13 -1 -13 -2z"/>
<path d="M2259 4805 c-1 -3 -2 -11 -3 -17 -1 -7 -8 -12 -15 -10 -7 1 -10 -2
-6 -8 4 -7 13 -7 26 1 19 10 19 9 9 -10 -8 -15 -8 -21 0 -21 6 0 8 -5 4 -12
-5 -7 -3 -8 5 -4 7 5 10 15 7 23 -3 8 -2 12 2 9 4 -2 14 -1 22 5 12 7 12 9 -3
9 -10 0 -16 4 -13 8 2 4 -4 13 -15 20 -10 7 -20 10 -20 7z"/>
<path d="M2389 4789 c-9 -50 -9 -53 1 -39 6 9 10 10 10 3 0 -19 -17 -24 -30
-9 -20 26 -79 -3 -80 -39 0 -5 4 -4 9 4 5 8 23 15 39 16 26 2 32 -2 41 -27 9
-24 14 -28 24 -19 8 6 17 8 21 3 4 -4 12 1 17 10 13 23 39 18 39 -8 0 -4 -7
-1 -15 6 -12 10 -15 10 -15 -4 0 -9 8 -16 20 -16 11 0 20 4 20 9 0 6 9 8 19 6
11 -2 26 4 35 14 14 15 14 18 1 18 -8 0 -12 -4 -9 -8 2 -4 0 -10 -5 -13 -5 -3
-11 1 -15 9 -3 9 -12 12 -22 8 -11 -4 -15 -2 -11 4 5 7 0 9 -13 6 -18 -5 -20
-2 -16 20 6 34 -21 45 -34 14 -5 -12 -10 -16 -11 -9 -1 6 -2 16 -3 21 -1 10
-16 27 -17 20z m47 -84 c-3 -8 -13 -11 -26 -8 -28 8 -35 22 -8 17 13 -2 17 -2
11 2 -7 3 -13 10 -13 15 0 6 5 7 11 4 6 -4 13 3 17 16 7 23 7 23 10 -4 2 -16
1 -35 -2 -42z"/>
<path d="M3480 4786 c0 -2 6 -9 14 -15 10 -9 15 -8 19 2 3 8 -3 13 -14 14 -10
1 -19 0 -19 -1z"/>
<path d="M3638 4753 c7 -3 16 -2 19 1 4 3 -2 6 -13 5 -11 0 -14 -3 -6 -6z"/>
<path d="M7933 4721 c0 -11 5 -18 9 -15 4 3 5 11 1 19 -7 21 -12 19 -10 -4z"/>
<path d="M3670 4720 c0 -5 5 -10 10 -10 6 0 10 5 10 10 0 6 -4 10 -10 10 -5 0
-10 -4 -10 -10z"/>
<path d="M2340 4710 c-9 -6 -10 -10 -3 -10 6 0 15 5 18 10 8 12 4 12 -15 0z"/>
<path d="M2229 4653 c-13 -16 -12 -17 4 -4 9 7 17 15 17 17 0 8 -8 3 -21 -13z"/>
<path d="M2406 4662 c-4 -6 -16 -9 -27 -7 -17 3 -19 2 -9 -10 6 -8 20 -17 31
-20 11 -4 17 -11 14 -16 -4 -5 -1 -9 6 -9 8 0 8 -4 -1 -15 -7 -8 -17 -12 -23
-8 -6 3 -7 1 -3 -5 11 -17 19 -14 40 15 11 14 14 23 8 19 -8 -5 -12 1 -12 16
0 29 -15 54 -24 40z"/>
<path d="M2510 4661 c0 -6 5 -13 10 -16 6 -3 10 1 10 9 0 9 -4 16 -10 16 -5 0
-10 -4 -10 -9z"/>
<path d="M3586 4662 c-3 -6 1 -13 10 -16 8 -3 12 -10 9 -16 -3 -6 1 -7 9 -4 9
3 16 10 16 16 0 5 5 6 10 3 6 -3 10 -1 10 5 0 7 -7 9 -16 6 -9 -4 -22 -2 -29
4 -8 7 -15 7 -19 2z"/>
<path d="M2346 4632 c-3 -5 1 -15 8 -21 11 -10 14 -9 12 3 -3 21 -13 29 -20
18z"/>
<path d="M2604 4625 c3 -9 0 -15 -10 -15 -9 0 -12 5 -8 12 4 7 3 8 -5 4 -16
-10 -6 -23 24 -28 19 -4 25 -1 25 12 0 10 -7 21 -16 24 -12 4 -15 2 -10 -9z"/>
<path d="M2641 4614 c0 -11 3 -14 6 -6 3 7 2 16 -1 19 -3 4 -6 -2 -5 -13z"/>
<path d="M5636 4601 c-9 -17 -16 -33 -16 -36 1 -20 -1 -25 -10 -25 -5 0 -10 7
-10 15 0 28 -19 15 -40 -25 -13 -26 -27 -40 -40 -40 -10 0 -25 -12 -34 -27 -8
-16 -22 -42 -31 -60 -12 -22 -23 -32 -37 -30 -15 1 -36 -17 -72 -59 -28 -34
-61 -66 -73 -73 -27 -13 -32 -37 -5 -25 25 11 63 8 72 -6 4 -6 10 -11 14 -10
4 1 21 -4 38 -11 23 -9 35 -10 49 -1 10 6 26 9 36 6 12 -4 14 -3 6 3 -10 7 -4
18 22 43 19 19 35 28 35 22 0 -7 -7 -15 -15 -18 -8 -4 -15 -10 -15 -16 0 -5 4
-7 9 -4 5 3 14 -1 21 -9 7 -8 18 -15 24 -15 6 0 3 5 -6 11 -23 13 -23 32 1 53
12 11 21 14 26 7 6 -10 -1 -15 -17 -12 -21 3 -5 -17 16 -21 29 -6 39 0 55 29
18 36 13 63 -14 73 -27 10 -26 20 8 77 10 18 15 38 11 44 -13 21 -11 83 4 122
18 47 9 60 -12 18z m-27 -182 c-13 -26 -17 -24 -11 6 2 15 0 25 -7 25 -6 0
-11 5 -11 12 0 6 8 3 20 -7 15 -13 17 -22 9 -36z m-15 -50 c-3 -5 -10 -7 -15
-3 -5 3 -7 10 -3 15 3 5 10 7 15 3 5 -3 7 -10 3 -15z m-194 -33 c0 -2 -7 -9
-15 -16 -13 -11 -14 -10 -9 4 5 14 24 23 24 12z m220 -52 c0 -16 -26 -19 -34
-5 -4 5 -3 16 0 25 5 13 9 14 20 5 8 -6 14 -18 14 -25z m-160 -29 c-18 -19
-35 -33 -38 -31 -4 4 59 65 67 66 3 0 -10 -16 -29 -35z m-84 -43 c-6 -5 -36
23 -36 34 0 4 9 -1 20 -11 11 -10 18 -20 16 -23z"/>
<path d="M3500 4570 c0 -5 5 -10 11 -10 5 0 7 5 4 10 -3 6 -8 10 -11 10 -2 0
-4 -4 -4 -10z"/>
<path d="M2658 4535 c3 -16 9 -21 22 -18 22 6 34 30 19 38 -5 4 -8 1 -7 -6 2
-6 -3 -14 -11 -17 -9 -3 -12 0 -9 10 4 8 1 15 -6 15 -8 0 -11 -9 -8 -22z"/>
<path d="M2905 4531 c-3 -5 -2 -12 3 -15 5 -3 9 1 9 9 0 17 -3 19 -12 6z"/>
<path d="M3521 4525 l-24 -12 27 0 c14 0 29 3 31 8 10 15 -10 17 -34 4z"/>
<path d="M2743 4515 c0 -8 4 -12 9 -9 5 3 6 10 3 15 -9 13 -12 11 -12 -6z"/>
<path d="M3585 4511 c3 -5 1 -12 -5 -16 -5 -3 -10 -16 -10 -28 0 -16 3 -18 12
-9 7 7 23 12 36 12 13 0 20 4 17 10 -3 6 -1 10 6 10 7 0 4 7 -7 15 -21 16 -59
20 -49 6z"/>
<path d="M5790 4486 c0 -2 8 -10 18 -17 15 -13 16 -12 3 4 -13 16 -21 21 -21
13z"/>
<path d="M3523 4456 c-13 -6 -23 -14 -23 -18 0 -13 13 -9 40 12 27 21 19 24
-17 6z"/>
<path d="M5095 4440 c-3 -5 -1 -10 4 -10 6 0 11 5 11 10 0 6 -2 10 -4 10 -3 0
-8 -4 -11 -10z"/>
<path d="M5106 4405 c-23 -35 -34 -125 -15 -125 36 1 69 100 44 133 -12 16
-14 15 -29 -8z"/>
<path d="M2613 4390 c-3 -11 -9 -18 -12 -15 -4 2 -8 -2 -8 -10 0 -8 3 -13 5
-10 3 3 12 -1 21 -7 13 -10 14 -10 4 1 -8 9 -9 21 -3 37 5 13 7 24 4 24 -3 0
-8 -9 -11 -20z"/>
<path d="M3410 4400 c-9 -6 -10 -10 -3 -10 6 0 15 5 18 10 8 12 4 12 -15 0z"/>
<path d="M7887 4403 c-13 -12 -7 -44 8 -49 8 -4 13 -9 10 -13 -2 -4 2 -8 9 -8
11 0 11 7 -1 36 -18 43 -18 43 -26 34z"/>
<path d="M2775 4389 c-4 -6 -5 -12 -2 -15 2 -3 7 2 10 11 7 17 1 20 -8 4z"/>
<path d="M3259 4372 c-9 -27 -10 -28 -82 -24 -50 2 -68 0 -57 -7 8 -5 33 -7
56 -4 33 4 42 2 48 -13 4 -10 1 -21 -6 -25 -20 -12 -2 -25 100 -68 51 -22 116
-56 144 -76 27 -20 52 -34 55 -32 5 5 -58 66 -83 80 -28 16 -13 27 16 12 44
-23 47 -18 12 16 -18 17 -32 35 -32 40 0 20 -2 25 -17 41 -8 9 -12 21 -9 26 8
14 -11 27 -68 46 -64 21 -65 21 -77 -12z"/>
<path d="M2639 4382 c9 -7 10 -11 2 -15 -7 -4 -8 -5 -1 -3 16 2 14 20 -2 24
-10 3 -10 2 1 -6z"/>
<path d="M2705 4380 c-4 -6 -10 -8 -15 -5 -5 3 -12 0 -16 -6 -4 -7 -3 -9 4 -5
5 3 12 2 14 -4 2 -6 9 -1 16 10 7 11 10 20 8 20 -3 0 -8 -5 -11 -10z"/>
<path d="M2195 4359 c-11 -16 -1 -19 13 -3 7 8 8 14 3 14 -5 0 -13 -5 -16 -11z"/>
<path d="M7125 4321 c-3 -5 -1 -13 5 -16 8 -5 7 -12 -2 -23 -12 -15 -11 -16 5
-3 9 7 17 10 17 6 0 -4 7 -2 15 5 20 16 9 32 -17 24 -14 -4 -18 -2 -14 5 4 6
5 11 2 11 -3 0 -7 -4 -11 -9z m45 -15 c0 -3 -4 -8 -10 -11 -5 -3 -10 -1 -10 4
0 6 5 11 10 11 6 0 10 -2 10 -4z"/>
<path d="M7855 4309 c-4 -6 -4 -13 -1 -16 3 -4 6 -1 6 5 0 6 8 13 18 15 15 4
15 5 0 6 -9 0 -20 -4 -23 -10z"/>
<path d="M2339 4303 c0 -5 -2 -19 -4 -33 -2 -14 -1 -19 1 -12 3 6 11 9 17 6 9
-5 9 -4 0 6 -6 7 -9 19 -6 26 3 8 2 14 -1 14 -3 0 -6 -3 -7 -7z"/>
<path d="M2276 4239 c-16 -4 -43 -6 -60 -3 -25 3 -27 3 -11 -5 11 -5 14 -10 7
-10 -7 -1 -22 4 -33 9 -10 6 -19 7 -20 3 0 -4 -2 -17 -4 -28 -4 -21 15 -51 24
-38 10 13 54 35 46 24 -4 -7 2 -10 17 -8 13 3 30 -4 41 -17 10 -12 16 -15 12
-8 -3 6 -1 12 4 12 6 0 11 -6 11 -12 0 -10 2 -10 9 0 7 11 9 10 15 -3 3 -9 10
-14 15 -11 5 4 11 0 14 -6 3 -7 3 1 2 17 -2 17 -5 32 -6 35 -3 6 -6 22 -8 34
0 5 -8 3 -16 -4 -13 -11 -14 -10 -9 5 5 12 4 16 -3 12 -6 -4 -13 -3 -15 1 -1
5 -16 5 -32 1z m77 -74 c-3 -9 -8 -14 -10 -11 -3 3 -2 9 2 15 9 16 15 13 8 -4z"/>
<path d="M2140 4229 c0 -5 -4 -8 -9 -5 -5 4 -8 -1 -7 -9 4 -24 19 -22 22 3 2
12 2 22 -1 22 -3 0 -5 -5 -5 -11z"/>
<path d="M2406 4212 c-12 -20 12 -34 40 -25 l29 10 -23 12 c-14 7 -22 8 -22 1
0 -5 -5 -10 -11 -10 -5 0 -7 5 -4 10 3 6 4 10 1 10 -3 0 -7 -4 -10 -8z"/>
<path d="M6460 4190 c-9 -6 -10 -10 -3 -10 6 0 15 5 18 10 8 12 4 12 -15 0z"/>
<path d="M3525 4160 c10 -11 20 -20 22 -20 2 0 -1 9 -7 20 -6 11 -16 20 -22
20 -6 0 -3 -9 7 -20z"/>
<path d="M6845 4171 c-3 -5 -2 -12 3 -15 5 -3 9 1 9 9 0 17 -3 19 -12 6z"/>
<path d="M1355 4161 c-3 -5 -2 -12 3 -15 5 -3 9 1 9 9 0 17 -3 19 -12 6z"/>
<path d="M6969 4152 c-13 -15 -12 -16 3 -4 13 10 17 10 21 0 4 -9 6 -9 6 -1 2
20 -16 24 -30 5z"/>
<path d="M7100 4160 c0 -5 5 -10 11 -10 5 0 7 5 4 10 -3 6 -8 10 -11 10 -2 0
-4 -4 -4 -10z"/>
<path d="M2701 4109 c-18 -22 -31 -42 -28 -45 3 -3 16 10 30 28 50 67 49 78
-2 17z"/>
<path d="M6630 4140 c0 -12 8 -12 35 0 18 8 17 9 -7 9 -16 1 -28 -3 -28 -9z"/>
<path d="M1345 4110 c-16 -7 -17 -9 -3 -9 9 -1 20 4 23 9 7 11 7 11 -20 0z"/>
<path d="M9209 4073 c-13 -16 -12 -17 4 -4 16 13 21 21 13 21 -2 0 -10 -8 -17
-17z"/>
<path d="M9503 4056 c-3 -6 -3 -8 2 -4 4 4 13 3 20 -2 8 -7 12 -5 12 3 0 16
-25 18 -34 3z"/>
<path d="M8679 4043 c-13 -16 -12 -17 4 -4 9 7 17 15 17 17 0 8 -8 3 -21 -13z"/>
<path d="M9451 4051 c-8 -6 -9 -11 -3 -15 6 -3 14 -1 17 5 9 14 2 20 -14 10z"/>
<path d="M3690 3915 c7 -9 15 -13 17 -11 7 7 -7 26 -19 26 -6 0 -6 -6 2 -15z"/>
<path d="M3901 2914 c0 -11 3 -14 6 -6 3 7 2 16 -1 19 -3 4 -6 -2 -5 -13z"/>
<path d="M7660 2921 c0 -5 -11 -12 -24 -15 -13 -3 -50 -25 -82 -49 -69 -50
-147 -97 -189 -114 -26 -10 -19 -11 50 -7 77 6 83 8 161 61 44 30 81 60 81 66
0 7 3 25 7 40 3 15 4 27 1 27 -3 0 -5 -4 -5 -9z"/>
<path d="M3902 2860 c0 -19 2 -27 5 -17 2 9 2 25 0 35 -3 9 -5 1 -5 -18z"/>
<path d="M3911 2777 c1 -25 6 -52 10 -58 4 -7 5 12 2 42 -6 68 -14 78 -12 16z"/>
<path d="M7042 2784 c10 -10 20 -16 22 -13 3 3 -5 11 -17 18 -21 13 -21 12 -5
-5z"/>
<path d="M2498 2729 c-4 -78 8 -137 33 -164 19 -19 19 -19 19 0 -1 31 -37 215
-43 222 -3 3 -7 -23 -9 -58z"/>
<path d="M7168 2757 c14 -6 26 -7 32 -1 6 6 -3 10 -23 10 -30 1 -30 1 -9 -9z"/>
<path d="M3920 2634 c0 -19 4 -33 8 -30 8 5 4 66 -4 66 -2 0 -4 -16 -4 -36z"/>
<path d="M2938 2583 c7 -3 16 -2 19 1 4 3 -2 6 -13 5 -11 0 -14 -3 -6 -6z"/>
<path d="M3238 2583 c6 -2 18 -2 25 0 6 3 1 5 -13 5 -14 0 -19 -2 -12 -5z"/>
<path d="M2890 2565 c-10 -12 -10 -19 -2 -27 7 -7 12 -10 13 -7 3 15 5 49 4
49 -2 0 -8 -7 -15 -15z"/>
<path d="M3940 2560 c-8 -5 -10 -10 -5 -10 6 0 17 5 25 10 8 5 11 10 5 10 -5
0 -17 -5 -25 -10z"/>
<path d="M3734 2488 c-10 -30 -13 -48 -8 -48 2 0 24 10 48 22 40 19 43 23 28
34 -27 21 -60 17 -68 -8z"/>
<path d="M2637 2465 c-28 -19 -37 -33 -37 -53 0 -31 24 -64 58 -81 28 -15 42
-7 42 25 0 13 5 24 10 24 6 0 10 -5 10 -12 0 -6 2 -9 5 -7 6 7 -31 123 -41
126 -5 2 -26 -8 -47 -22z"/>
<path d="M3420 2330 c-21 -7 -19 -8 18 -9 23 -1 42 -4 42 -8 -1 -23 -23 -36
-66 -39 -27 -2 -43 -1 -36 2 10 5 10 9 1 21 -10 12 -10 16 2 24 10 6 8 9 -12
9 -14 0 -28 -3 -32 -6 -3 -3 -25 -7 -49 -9 -24 -2 -52 -5 -63 -8 -104 -26
-147 -39 -178 -52 -20 -8 -51 -15 -68 -15 -25 0 -41 -11 -81 -52 -36 -39 -47
-58 -43 -73 6 -20 11 -44 20 -103 4 -18 20 -48 37 -67 16 -19 25 -35 20 -35
-21 0 -80 83 -97 135 -21 68 -34 72 -25 8 9 -62 15 -222 15 -454 0 -148 -3
-189 -15 -203 -30 -37 -22 -47 33 -44 l52 3 -3 34 c-3 28 -1 33 12 28 9 -4 16
-1 16 5 0 12 47 58 59 58 4 0 11 66 14 146 5 132 13 179 24 148 2 -6 44 -72
92 -145 120 -182 199 -266 296 -314 113 -55 139 -56 235 -6 44 22 128 57 187
77 60 20 113 40 120 46 16 13 33 2 33 -22 0 -10 5 -22 10 -25 27 -17 -26 134
-85 241 -19 36 -35 70 -35 77 0 7 -7 26 -16 42 -8 17 -40 89 -71 160 -31 72
-59 132 -64 135 -5 3 -30 46 -57 95 -38 70 -60 99 -103 132 -32 24 -53 48 -51
57 2 12 -5 16 -30 15 -18 -1 -44 -5 -58 -9z"/>
<path d="M4910 1721 c0 -23 62 -28 80 -6 11 13 6 15 -34 15 -25 0 -46 -4 -46
-9z"/>
<path d="M4922 1654 c-32 -22 -31 -86 3 -120 31 -31 53 -28 76 11 23 39 23 68
2 93 -25 29 -55 35 -81 16z"/>
<path d="M5413 1564 c7 -39 32 -74 53 -74 18 0 48 46 39 60 -9 14 -28 1 -21
-16 7 -19 -9 -26 -23 -10 -9 11 -8 17 3 28 12 13 11 17 -14 31 -40 24 -43 22
-37 -19z"/>
<path d="M5556 1497 c39 -22 82 -64 97 -93 8 -16 34 -50 56 -74 23 -25 46 -60
52 -77 11 -36 29 -44 29 -15 0 18 -46 87 -112 168 -39 48 -109 104 -129 104
-8 -1 -6 -6 7 -13z"/>
<path d="M4926 1444 c-35 -34 -1 -124 46 -124 29 0 58 28 51 48 -4 10 -2 13 5
8 20 -12 14 29 -9 58 -24 30 -69 35 -93 10z"/>
<path d="M5437 1422 c-26 -28 -21 -79 9 -109 l27 -27 24 29 c28 32 26 74 -4
107 -20 23 -36 23 -56 0z m63 -39 c0 -22 -2 -25 -10 -13 -13 20 -13 40 0 40 6
0 10 -12 10 -27z"/>
<path d="M4947 1262 c-30 -33 -15 -99 28 -122 32 -17 53 -7 71 35 13 31 13 39
0 64 -23 44 -70 55 -99 23z m91 -68 c-3 -14 -5 -12 -10 9 -3 19 -2 25 4 19 6
-6 8 -18 6 -28z"/>
<path d="M4708 1256 c-23 -17 -33 -68 -19 -95 9 -16 18 -20 36 -15 13 3 32 1
42 -6 15 -9 12 -10 -17 -5 -25 4 -31 2 -23 -6 32 -32 101 26 89 75 -14 56 -69
82 -108 52z"/>
<path d="M5452 1248 c-26 -26 -7 -120 27 -133 22 -9 51 30 51 69 0 58 -46 96
-78 64z m48 -68 c0 -5 -4 -10 -10 -10 -5 0 -10 5 -10 10 0 6 5 10 10 10 6 0
10 -4 10 -10z"/>
<path d="M4318 1093 c7 -3 16 -2 19 1 4 3 -2 6 -13 5 -11 0 -14 -3 -6 -6z"/>
<path d="M4583 1093 c9 -2 23 -2 30 0 6 3 -1 5 -18 5 -16 0 -22 -2 -12 -5z"/>
<path d="M9989 395 c-1 -3 -2 -8 -3 -12 -1 -5 -4 -13 -8 -19 -4 -6 -1 -11 5
-11 7 0 13 11 13 24 0 21 -4 31 -7 18z"/>
<path d="M9974 314 c0 -20 11 -25 11 -6 0 4 3 12 7 18 4 6 1 11 -5 11 -7 0
-13 -11 -13 -23z"/>
<path d="M3254 200 c-16 -6 -16 -7 -1 -13 23 -9 21 -25 -8 -109 -14 -39 -25
-73 -25 -75 0 -2 38 -3 85 -3 71 0 83 2 79 15 -4 8 -10 12 -15 9 -5 -3 -9 4
-9 15 0 12 -4 21 -8 21 -4 0 -9 14 -10 31 -2 27 0 30 19 24 18 -6 21 -4 16 10
-7 18 15 59 26 48 4 -3 7 -1 7 5 0 6 -5 14 -10 17 -14 9 -124 12 -146 5z"/>
<path d="M9886 68 c3 -5 10 -6 15 -3 13 9 11 12 -6 12 -8 0 -12 -4 -9 -9z"/>
</g>
</svg>
