<svg xmlns="http://www.w3.org/2000/svg" id="svg20" version="1.1" viewBox="0 0 160.75 50"><defs id="defs24"><clipPath id="clipPath20" clipPathUnits="userSpaceOnUse"><path id="path18" d="M 0,576 H 576 V 0 H 0 Z"/></clipPath></defs><rect id="rect4" width="160.75" height="50" x="0" y="0" fill="#000" stroke-width=".875" rx="2.296"/><g id="g79" transform="translate(1.064 -.419)"><g id="g18" fill="#fff" class="text" transform="translate(2.895)"><g id="g14" fill="#fff" transform="matrix(.199 0 0 -.199 26.63 59.347)"><g id="g16" fill="#fff" clip-path="url(#clipPath20)"><g id="g22" transform="translate(177.281 151.013)"><path id="path24" fill="#fff" fill-opacity="1" fill-rule="nonzero" stroke="none" d="m 0,0 h -30.267 c -0.781,0 -1.415,-0.634 -1.415,-1.415 v -14.798 c 0,-0.781 0.634,-1.417 1.415,-1.417 h 11.807 v -18.385 c 0,0 -2.651,-0.904 -9.981,-0.904 -8.647,0 -20.727,3.16 -20.727,29.724 0,26.569 12.579,30.064 24.388,30.064 10.222,0 14.626,-1.799 17.428,-2.667 0.881,-0.269 1.695,0.608 1.695,1.389 l 3.377,14.298 c 0,0.366 -0.124,0.805 -0.54,1.104 -1.138,0.813 -8.081,4.697 -25.621,4.697 -20.205,0 -40.932,-8.596 -40.932,-49.921 0,-41.327 23.73,-47.485 43.727,-47.485 16.557,0 26.601,7.075 26.601,7.075 0.414,0.229 0.459,0.808 0.459,1.073 V -1.415 C 1.414,-0.634 0.781,0 0,0"/></g><g id="g26" transform="translate(333.265 187.751)"><path id="path28" fill="#fff" fill-opacity="1" fill-rule="nonzero" stroke="none" d="m 0,0 c 0,0.788 -0.624,1.423 -1.405,1.423 h -17.042 c -0.779,0 -1.411,-0.635 -1.411,-1.423 0,-0.003 0.004,-32.934 0.004,-32.934 H -46.418 V 0 c 0,0.788 -0.627,1.423 -1.407,1.423 h -17.041 c -0.775,0 -1.407,-0.635 -1.407,-1.423 v -89.177 c 0,-0.787 0.632,-1.427 1.407,-1.427 h 17.041 c 0.78,0 1.407,0.64 1.407,1.427 v 38.145 h 26.564 c 0,0 -0.046,-38.142 -0.046,-38.145 0,-0.787 0.631,-1.427 1.412,-1.427 h 17.082 c 0.78,0 1.404,0.64 1.406,1.427 z"/></g><g id="g30" transform="translate(209.44 176.05)"><path id="path32" fill="#fff" fill-opacity="1" fill-rule="nonzero" stroke="none" d="m 0,0 c 0,6.136 -4.92,11.095 -10.99,11.095 -6.064,0 -10.987,-4.959 -10.987,-11.095 0,-6.131 4.923,-11.104 10.987,-11.104 C -4.92,-11.104 0,-6.131 0,0"/></g><g id="g34" transform="translate(208.222 117.386)"><path id="path36" fill="#fff" fill-opacity="1" fill-rule="nonzero" stroke="none" d="m 0,0 v 41.164 c 0,0.782 -0.63,1.421 -1.41,1.421 h -16.988 c -0.78,0 -1.477,-0.804 -1.477,-1.585 v -58.977 c 0,-1.733 1.08,-2.249 2.478,-2.249 h 15.306 c 1.679,0 2.091,0.826 2.091,2.277 z"/></g><g id="g38" transform="translate(398.032 159.837)"><path id="path40" fill="#fff" fill-opacity="1" fill-rule="nonzero" stroke="none" d="m 0,0 h -16.911 c -0.776,0 -1.407,-0.64 -1.407,-1.427 v -43.725 c 0,0 -4.297,-3.144 -10.395,-3.144 -6.098,0 -7.716,2.767 -7.716,8.737 v 38.132 c 0,0.787 -0.63,1.427 -1.406,1.427 h -17.164 c -0.774,0 -1.409,-0.64 -1.409,-1.427 v -41.018 c 0,-17.736 9.884,-22.075 23.481,-22.075 11.156,0 20.15,6.164 20.15,6.164 0,0 0.427,-3.248 0.622,-3.633 0.193,-0.384 0.698,-0.773 1.244,-0.773 l 10.919,0.049 c 0.774,0 1.409,0.64 1.409,1.424 L 1.411,-1.427 C 1.411,-0.64 0.779,0 0,0"/></g><g id="g42" transform="translate(437.584 111.595)"><path id="path44" fill="#fff" fill-opacity="1" fill-rule="nonzero" stroke="none" d="m 0,0 c -5.866,0.179 -9.845,2.841 -9.845,2.841 v 28.24 c 0,0 3.925,2.406 8.741,2.836 6.09,0.546 11.958,-1.294 11.958,-15.821 C 10.854,2.776 8.206,-0.247 0,0 m 6.67,50.245 c -9.605,0 -16.138,-4.285 -16.138,-4.285 v 30.196 c 0,0.788 -0.63,1.423 -1.406,1.423 h -17.091 c -0.777,0 -1.408,-0.635 -1.408,-1.423 v -89.177 c 0,-0.787 0.631,-1.426 1.41,-1.426 h 11.858 c 0.534,0 0.938,0.275 1.237,0.757 0.295,0.479 0.72,4.112 0.72,4.112 0,0 6.988,-6.623 20.217,-6.623 15.532,0 24.439,7.878 24.439,35.366 0,27.488 -14.226,31.08 -23.838,31.08"/></g><g id="g46" transform="translate(257.202 159.978)"><path id="path48" fill="#fff" fill-opacity="1" fill-rule="nonzero" stroke="none" d="m 0,0 h -12.784 c 0,0 -0.019,16.885 -0.019,16.889 0,0.639 -0.329,0.959 -1.069,0.959 h -17.42 c -0.677,0 -1.041,-0.298 -1.041,-0.95 V -0.554 c 0,0 -8.73,-2.107 -9.32,-2.277 -0.588,-0.171 -1.021,-0.713 -1.021,-1.359 v -10.967 c 0,-0.789 0.63,-1.426 1.409,-1.426 h 8.932 v -26.384 c 0,-19.596 13.746,-21.521 23.021,-21.521 4.239,0 9.309,1.361 10.146,1.67 0.506,0.186 0.801,0.711 0.801,1.279 l 0.014,12.064 c 0,0.787 -0.665,1.424 -1.413,1.424 -0.745,0 -2.651,-0.303 -4.613,-0.303 -6.279,0 -8.407,2.919 -8.407,6.699 0,3.776 -10e-4,25.072 -10e-4,25.072 H 0 c 0.779,0 1.411,0.637 1.411,1.426 V -1.421 C 1.411,-0.634 0.779,0 0,0"/></g></g></g></g><g id="g196" transform="matrix(.97902 0 0 -.97902 27.349 9.931)"><path id="path198" fill="#fff" fill-opacity="1" fill-rule="evenodd" stroke="none" d="m 0,0 c -8.995,0 -16.288,-7.293 -16.288,-16.29 0,-7.197 4.667,-13.302 11.14,-15.457 0.815,-0.149 1.112,0.354 1.112,0.786 0,0.386 -0.014,1.411 -0.022,2.77 -4.531,-0.984 -5.487,2.184 -5.487,2.184 -0.741,1.882 -1.809,2.383 -1.809,2.383 -1.479,1.01 0.112,0.99 0.112,0.99 1.635,-0.115 2.495,-1.679 2.495,-1.679 1.453,-2.489 3.813,-1.77 4.741,-1.353 0.148,1.052 0.568,1.77 1.034,2.177 -3.617,0.411 -7.42,1.809 -7.42,8.051 0,1.778 0.635,3.232 1.677,4.371 -0.168,0.412 -0.727,2.068 0.159,4.311 0,0 1.368,0.438 4.48,-1.67 1.299,0.362 2.693,0.542 4.078,0.548 1.383,-0.006 2.777,-0.186 4.078,-0.548 3.11,2.108 4.475,1.67 4.475,1.67 0.889,-2.243 0.33,-3.899 0.162,-4.311 1.044,-1.139 1.675,-2.593 1.675,-4.371 0,-6.258 -3.809,-7.635 -7.438,-8.038 0.585,-0.503 1.106,-1.497 1.106,-3.017 0,-2.177 -0.02,-3.934 -0.02,-4.468 0,-0.436 0.293,-0.943 1.12,-0.784 6.468,2.159 11.131,8.26 11.131,15.455 C 16.291,-7.293 8.997,0 0,0"/></g><g style="line-height:1.25;-inkscape-font-specification:'Inter Semi-Bold'" id="text38" fill="#fff" fill-opacity="1" stroke="none" aria-label="Fork this project on" font-family="Inter" font-size="12" font-stretch="normal" font-style="normal" font-variant="normal" font-weight="600" letter-spacing="-.5"><path id="path116" style="-inkscape-font-specification:'Inter Semi-Bold'" d="M 50.727418,18.559343 V 9.8320706 h 5.590909 v 1.3252844 h -4.009943 v 2.369318 h 3.626421 v 1.325284 h -3.626421 v 3.707386 z"/><path id="path118" style="-inkscape-font-specification:'Inter Semi-Bold'" d="m 59.564033,18.687184 q -0.958807,0 -1.661932,-0.421875 -0.703125,-0.421875 -1.090909,-1.180397 -0.383523,-0.762785 -0.383523,-1.772728 0,-1.014204 0.383523,-1.772727 0.387784,-0.762784 1.090909,-1.184659 0.703125,-0.426136 1.661932,-0.426136 0.958807,0 1.661932,0.426136 0.707386,0.421875 1.090909,1.184659 0.383522,0.758523 0.383522,1.772727 0,1.009943 -0.383522,1.772728 -0.383523,0.758522 -1.090909,1.180397 -0.703125,0.421875 -1.661932,0.421875 z m 0.0085,-1.235795 q 0.524147,0 0.869318,-0.285512 0.349432,-0.285511 0.519886,-0.771306 0.174716,-0.490057 0.174716,-1.086648 0,-0.600852 -0.174716,-1.086648 -0.170454,-0.490057 -0.519886,-0.779829 -0.345171,-0.289773 -0.869318,-0.289773 -0.52841,0 -0.882103,0.289773 -0.349432,0.289772 -0.524147,0.779829 -0.174716,0.485796 -0.174716,1.086648 0,0.596591 0.174716,1.086648 0.174715,0.485795 0.524147,0.771306 0.353693,0.285512 0.882103,0.285512 z"/><path id="path120" style="-inkscape-font-specification:'Inter Semi-Bold'" d="m 63.504367,18.559343 v -6.545454 h 1.495739 v 1.090909 h 0.06818 q 0.178977,-0.571023 0.613636,-0.877841 0.438921,-0.306818 1.001421,-0.306818 0.127841,0 0.285511,0.01278 0.161932,0.0085 0.268466,0.02983 v 1.419035 q -0.09801,-0.03409 -0.31108,-0.05966 -0.208806,-0.02983 -0.404829,-0.02983 -0.634943,0 -1.056818,0.400568 -0.417614,0.396307 -0.417614,1.018466 v 3.848011 z"/><path id="path122" style="-inkscape-font-specification:'Inter Semi-Bold'" d="M 67.764309,18.559343 V 9.8320706 h 1.542613 V 14.64315 h 0.106534 l 2.352273,-2.629261 h 1.802557 l -2.535512,2.825284 2.68466,3.72017 h -1.845171 l -2.002841,-2.799716 -0.5625,0.600853 v 2.198863 z"/><path id="path124" style="-inkscape-font-specification:'Inter Semi-Bold'" d="m 79.838164,12.013889 v 1.193182 h -1.291193 v 3.383522 q 0,0.464489 0.204545,0.613637 0.204546,0.144886 0.494318,0.144886 0.144887,0 0.264205,-0.02131 0.123579,-0.02131 0.1875,-0.03835 l 0.259943,1.205966 q -0.123579,0.04261 -0.353693,0.09375 -0.225852,0.05114 -0.553977,0.05966 -0.869319,0.02557 -1.461648,-0.426136 -0.588068,-0.451705 -0.583807,-1.376421 V 13.207071 H 76.07538 v -1.193182 h 0.928977 v -1.568182 h 1.542614 v 1.568182 z"/><path id="path126" style="-inkscape-font-specification:'Inter Semi-Bold'" d="m 82.308303,14.724116 v 3.835227 H 80.76569 V 9.8320706 h 1.508522 v 3.2940344 h 0.0767 q 0.225852,-0.558239 0.707386,-0.877841 0.485796,-0.319602 1.240057,-0.319602 1.018466,0 1.636364,0.639204 0.617897,0.639205 0.617897,1.823864 v 4.167613 h -1.542613 v -3.928977 q 0,-0.660511 -0.340909,-1.026989 -0.336648,-0.370738 -0.946023,-0.370738 -0.617898,0 -1.018466,0.392045 -0.396307,0.387784 -0.396307,1.099432 z"/><path id="path128" style="-inkscape-font-specification:'Inter Semi-Bold'" d="m 87.620784,18.559343 v -6.545454 h 1.542614 v 6.545454 z m 0.775569,-7.474431 q -0.370739,0 -0.634944,-0.242898 -0.259943,-0.247159 -0.259943,-0.59233 0,-0.3494316 0.259943,-0.5923293 0.264205,-0.2471591 0.634944,-0.2471591 0.366477,0 0.62642,0.2471591 0.264205,0.2428977 0.264205,0.5923293 0,0.345171 -0.264205,0.59233 -0.259943,0.242898 -0.62642,0.242898 z"/><path id="path130" style="-inkscape-font-specification:'Inter Semi-Bold'" d="m 95.42191,13.744002 -1.40625,0.15341 q -0.08949,-0.323864 -0.383522,-0.571023 -0.289773,-0.247159 -0.822444,-0.247159 -0.481534,0 -0.809659,0.208807 -0.323863,0.208806 -0.319602,0.541193 -0.0043,0.285511 0.208807,0.46875 0.217329,0.178977 0.715909,0.289772 l 1.116477,0.238637 q 1.836648,0.400568 1.840909,1.772727 0,0.617898 -0.357954,1.090909 -0.357955,0.46875 -0.988637,0.732955 -0.630681,0.264204 -1.448863,0.264204 -1.205966,0 -1.934659,-0.507102 -0.728693,-0.507102 -0.87358,-1.40625 l 1.504262,-0.144886 q 0.200284,0.894886 1.299715,0.894886 0.549716,0 0.882103,-0.221591 0.336647,-0.225852 0.336647,-0.5625 0,-0.549716 -0.882102,-0.745739 L 91.98299,15.759627 q -0.941761,-0.196022 -1.393466,-0.660511 -0.451705,-0.46875 -0.447443,-1.184659 0,-0.605114 0.332386,-1.048295 0.332387,-0.447444 0.928977,-0.690341 0.596591,-0.247159 1.384944,-0.247159 1.150568,0 1.811079,0.494318 0.664773,0.490057 0.822443,1.321022 z"/><path id="path132" style="-inkscape-font-specification:'Inter Semi-Bold'" d="m 98.815372,21.013889 v -9 h 1.517048 v 1.082386 h 0.0895 q 0.11931,-0.238636 0.33238,-0.507102 0.21733,-0.272727 0.58807,-0.464489 0.375,-0.196022 0.95028,-0.196022 0.75853,0 1.3679,0.387784 0.61364,0.387784 0.97159,1.137784 0.36222,0.75 0.36222,1.840909 0,1.078125 -0.35369,1.832386 -0.3537,0.754262 -0.96307,1.150568 -0.60938,0.396307 -1.38068,0.396307 -0.5625,0 -0.93324,-0.1875 -0.37074,-0.1875 -0.59659,-0.451704 -0.22159,-0.268466 -0.34517,-0.507103 h -0.0639 v 3.485796 z m 1.512788,-5.727273 q 0,0.950284 0.40056,1.538352 0.40057,0.583807 1.13779,0.583807 0.76278,0 1.15909,-0.600852 0.39631,-0.600852 0.39631,-1.521307 0,-0.916193 -0.39205,-1.504261 -0.39204,-0.588068 -1.16335,-0.588068 -0.74574,0 -1.14205,0.571022 -0.3963,0.566762 -0.3963,1.521307 z"/><path id="path134" style="-inkscape-font-specification:'Inter Semi-Bold'" d="m 105.81109,18.559343 v -6.545454 h 1.49574 v 1.090909 h 0.0682 q 0.17898,-0.571023 0.61364,-0.877841 0.43892,-0.306818 1.00142,-0.306818 0.12784,0 0.28551,0.01278 0.16193,0.0085 0.26847,0.02983 v 1.419035 q -0.098,-0.03409 -0.31108,-0.05966 -0.20881,-0.02983 -0.40483,-0.02983 -0.63495,0 -1.05682,0.400568 -0.41761,0.396307 -0.41761,1.018466 v 3.848011 z"/><path id="path136" style="-inkscape-font-specification:'Inter Semi-Bold'" d="m 112.65341,18.687184 q -0.95881,0 -1.66193,-0.421875 -0.70313,-0.421875 -1.09091,-1.180397 -0.38352,-0.762785 -0.38352,-1.772728 0,-1.014204 0.38352,-1.772727 0.38778,-0.762784 1.09091,-1.184659 0.70312,-0.426136 1.66193,-0.426136 0.95881,0 1.66193,0.426136 0.70739,0.421875 1.09091,1.184659 0.38352,0.758523 0.38352,1.772727 0,1.009943 -0.38352,1.772728 -0.38352,0.758522 -1.09091,1.180397 -0.70312,0.421875 -1.66193,0.421875 z m 0.009,-1.235795 q 0.52415,0 0.86932,-0.285512 0.34943,-0.285511 0.51989,-0.771306 0.17471,-0.490057 0.17471,-1.086648 0,-0.600852 -0.17471,-1.086648 -0.17046,-0.490057 -0.51989,-0.779829 -0.34517,-0.289773 -0.86932,-0.289773 -0.52841,0 -0.8821,0.289773 -0.34943,0.289772 -0.52415,0.779829 -0.17471,0.485796 -0.17471,1.086648 0,0.596591 0.17471,1.086648 0.17472,0.485795 0.52415,0.771306 0.35369,0.285512 0.8821,0.285512 z"/><path id="path138" style="-inkscape-font-specification:'Inter Semi-Bold'" d="m 116.59375,12.013889 h 1.54261 v 6.920454 q 0,1.06108 -0.59659,1.568182 -0.59659,0.511364 -1.67898,0.511364 -0.081,0 -0.15341,-0.0043 -0.0767,0 -0.16193,-0.0043 v -1.257102 q 0.0639,0.0043 0.11506,0.0043 0.0511,0.0043 0.10653,0.0043 0.44318,0 0.63494,-0.21733 0.19177,-0.213068 0.19177,-0.62642 z m 0.76704,-0.928977 q -0.37074,0 -0.63494,-0.242898 -0.25995,-0.247159 -0.25995,-0.59233 0,-0.3494316 0.25995,-0.5923293 0.2642,-0.2471591 0.63494,-0.2471591 0.36648,0 0.62642,0.2471591 0.26421,0.2428977 0.26421,0.5923293 0,0.345171 -0.26421,0.59233 -0.25994,0.242898 -0.62642,0.242898 z"/><path id="path140" style="-inkscape-font-specification:'Inter Semi-Bold'" d="m 122.1193,18.687184 q -0.98437,0 -1.70028,-0.413352 -0.71165,-0.413352 -1.09517,-1.167614 -0.38352,-0.754261 -0.38352,-1.78125 0,-1.009943 0.38352,-1.772727 0.38352,-0.767045 1.07812,-1.193182 0.69887,-0.430397 1.63637,-0.430397 0.8054,0 1.48721,0.349431 0.68182,0.345171 1.09091,1.078125 0.41335,0.728694 0.41335,1.879262 v 0.473011 h -4.55965 q 0.0128,0.839489 0.46448,1.308239 0.45597,0.46875 1.20597,0.46875 0.49858,0 0.8608,-0.213068 0.36647,-0.21733 0.52414,-0.630682 l 1.44034,0.161932 q -0.20454,0.852272 -0.95454,1.367897 -0.74574,0.515625 -1.89205,0.515625 z m -1.64488,-4.018466 h 3.0767 q -0.004,-0.669034 -0.41761,-1.103693 -0.40909,-0.434659 -1.07387,-0.434659 -0.69034,0 -1.12073,0.455966 -0.4304,0.455966 -0.46449,1.082386 z"/><path id="path142" style="-inkscape-font-specification:'Inter Semi-Bold'" d="m 128.6889,18.687184 q -0.97586,0 -1.67898,-0.430397 -0.70313,-0.430398 -1.08239,-1.193182 -0.375,-0.762784 -0.375,-1.751421 0,-1.00142 0.38352,-1.759943 0.38353,-0.762784 1.08239,-1.193182 0.70313,-0.430397 1.66193,-0.430397 0.80114,0 1.41478,0.294034 0.61363,0.289772 0.98011,0.818181 0.36648,0.52841 0.41761,1.240057 h -1.47443 q -0.0895,-0.473011 -0.42614,-0.788352 -0.33238,-0.319602 -0.89062,-0.319602 -0.71165,0 -1.15057,0.5625 -0.43466,0.558238 -0.43466,1.551136 0,1.001421 0.4304,1.572443 0.43466,0.571023 1.15483,0.571023 0.5071,0 0.8608,-0.289773 0.35795,-0.289772 0.45596,-0.818182 h 1.47443 q -0.0554,0.694603 -0.40909,1.227273 -0.35369,0.532671 -0.96307,0.835227 -0.60937,0.302557 -1.43181,0.302557 z"/><path id="path144" style="-inkscape-font-specification:'Inter Semi-Bold'" d="m 135.53121,12.013889 v 1.193182 h -1.29119 v 3.383522 q 0,0.464489 0.20454,0.613637 0.20455,0.144886 0.49432,0.144886 0.14489,0 0.26421,-0.02131 0.12358,-0.02131 0.1875,-0.03835 l 0.25994,1.205966 q -0.12358,0.04261 -0.35369,0.09375 -0.22586,0.05114 -0.55398,0.05966 -0.86932,0.02557 -1.46165,-0.426136 -0.58807,-0.451705 -0.58381,-1.376421 v -3.639204 h -0.92897 v -1.193182 h 0.92897 v -1.568182 h 1.54262 v 1.568182 z"/><path id="path146" style="-inkscape-font-specification:'Inter Semi-Bold'" d="m 141.6562,18.687184 q -0.95881,0 -1.66194,-0.421875 -0.70312,-0.421875 -1.09091,-1.180397 -0.38352,-0.762785 -0.38352,-1.772728 0,-1.014204 0.38352,-1.772727 0.38779,-0.762784 1.09091,-1.184659 0.70313,-0.426136 1.66194,-0.426136 0.9588,0 1.66193,0.426136 0.70738,0.421875 1.09091,1.184659 0.38352,0.758523 0.38352,1.772727 0,1.009943 -0.38352,1.772728 -0.38353,0.758522 -1.09091,1.180397 -0.70313,0.421875 -1.66193,0.421875 z m 0.009,-1.235795 q 0.52415,0 0.86932,-0.285512 0.34943,-0.285511 0.51988,-0.771306 0.17472,-0.490057 0.17472,-1.086648 0,-0.600852 -0.17472,-1.086648 -0.17045,-0.490057 -0.51988,-0.779829 -0.34517,-0.289773 -0.86932,-0.289773 -0.52841,0 -0.8821,0.289773 -0.34944,0.289772 -0.52415,0.779829 -0.17472,0.485796 -0.17472,1.086648 0,0.596591 0.17472,1.086648 0.17471,0.485795 0.52415,0.771306 0.35369,0.285512 0.8821,0.285512 z"/><path id="path148" style="-inkscape-font-specification:'Inter Semi-Bold'" d="m 147.13914,14.724116 v 3.835227 h -1.54261 v -6.545454 h 1.47443 v 1.112216 h 0.0767 q 0.22585,-0.545455 0.72017,-0.869318 0.49858,-0.328125 1.23153,-0.328125 1.01421,0 1.62784,0.643465 0.6179,0.643466 0.61364,1.819603 v 4.167613 h -1.54261 v -3.928977 q 0,-0.65625 -0.34091,-1.026989 -0.33665,-0.370738 -0.93324,-0.370738 -0.60938,0 -0.99716,0.392045 -0.38779,0.387784 -0.38779,1.099432 z"/></g></g></svg>