<svg version="1" xmlns="http://www.w3.org/2000/svg" width="1333.333" height="1333.333" viewBox="0 0 1000.000000 1000.000000"><path d="M181 500.5V864h144.3c143 0 165.3-.4 193.2-3.6 72.4-8.1 135.6-33.5 186-74.9 12.5-10.3 32.1-30.1 42.1-42.5 24.1-30 45.9-71.4 57.3-108.5 22.3-72.9 24.8-167.1 6.5-243.5-16.8-70.4-52.9-130.8-103.4-173.2-52.3-44-115.5-69.1-197.5-78.5-13.4-1.5-31.9-1.7-171.7-2l-156.8-.4v363.6zm306.9-194.1c59.5 8.6 93.3 30.2 115 73.4 10.3 20.5 17.2 49.1 20.1 83.7 1.3 15.8 1.3 58-.1 74.2-4.6 55.8-18.7 93.1-45.2 119.2-16.7 16.4-36.7 26.7-65.2 33.4-22 5.2-30.3 5.9-84.2 6.4l-50.3.5V303.8l49.3.5c38.5.4 51.7.8 60.6 2.1z"/></svg>